
<svg width="91px" height="91px" viewBox="0 0 91 91" version="1.1" xmlns="http://www.w3.org/2000/svg" xmlns:xlink="http://www.w3.org/1999/xlink">
    <!-- Generator: Sketch 50.2 (55047) - http://www.bohemiancoding.com/sketch -->
    <desc>Created with Sketch.</desc>
    <defs>
        <circle id="path-1" cx="42.5" cy="42.5" r="42.5"></circle>
        <filter x="-5.9%" y="-4.7%" width="111.8%" height="111.8%" filterUnits="objectBoundingBox" id="filter-2">
            <feOffset dx="0" dy="1" in="SourceAlpha" result="shadowOffsetOuter1"></feOffset>
            <feGaussianBlur stdDeviation="1.5" in="shadowOffsetOuter1" result="shadowBlurOuter1"></feGaussianBlur>
            <feColorMatrix values="0 0 0 0 0   0 0 0 0 0   0 0 0 0 0  0 0 0 0.3 0" type="matrix" in="shadowBlurOuter1"></feColorMatrix>
        </filter>
    </defs>
    <g id="Wireframes---Desktop" stroke="none" stroke-width="1" fill="none" fill-rule="evenodd">
        <g id="Dash---My-Vault---My-Files" transform="translate(-1108.000000, -802.000000)">
            <g id="Add-Folder/Document-Button" transform="translate(1111.000000, 804.000000)">
                <g id="Oval-4">
                    <use fill="black" fill-opacity="1" filter="url(#filter-2)" xlink:href="#path-1"></use>
                    <use fill="#01AA50" fill-rule="evenodd" xlink:href="#path-1"></use>
                </g>
                <path d="M60.668872,29.7183438 L40.6725487,29.7183438 L34.9244887,25.5519983 C34.7444248,25.3779299 34.4450966,25.3214117 34.2065799,25.3214117 L24.3898111,25.3191489 C22.4137659,25.3191489 20.7978723,26.8812391 20.7978723,28.7914894 L20.7978723,56.5702128 C20.7978723,58.480463 22.4137659,60.0425532 24.3898111,60.0425532 L60.6085274,60.0425532 C62.5845727,60.0425532 64.2004662,58.480463 64.2004662,56.5702128 L64.2004662,33.1909447 C64.2612658,31.2806945 62.6453363,29.7186043 60.6693509,29.7186043 L60.668872,29.7183438 Z" id="Page-1" fill="#FFFFFF"></path>
                <polygon id="Fill-2" fill="#01AA50" points="42.9538457 54.0072819 43.914617 54.0072819 43.914617 45.9331138 51.9900149 45.9331138 51.9900149 44.9723426 43.914617 44.9723426 43.914617 36.8969447 42.9538457 36.8969447 42.9538457 44.9723426 34.8796777 44.9723426 34.8796777 45.9331138 42.9538457 45.9331138"></polygon>
            </g>
        </g>
    </g>
</svg>