<svg height="24" viewBox="0 0 24 24" width="24" xmlns="http://www.w3.org/2000/svg" xmlns:xlink="http://www.w3.org/1999/xlink"><defs><circle id="a" cx="42.5" cy="42.5" r="42.5"/><filter id="b" height="1.118" width="1.118" x="-.059" y="-.047"><feOffset dx="0" dy="1" in="SourceAlpha" result="shadowOffsetOuter1"/><feGaussianBlur in="shadowOffsetOuter1" result="shadowBlurOuter1" stdDeviation="1.5"/><feColorMatrix in="shadowBlurOuter1" type="matrix" values="0 0 0 0 0   0 0 0 0 0   0 0 0 0 0  0 0 0 0.3 0"/></filter></defs><g fill="none" fill-rule="evenodd" transform="matrix(.2550751 0 0 .2550751 1.1178103 .9606312)"><use fill="#000" filter="url(#b)" height="100%" width="100%" xlink:href="#a"/><use fill="#01aa50" fill-rule="evenodd" height="100%" width="100%" xlink:href="#a"/><path d="m60.668872 29.718344h-19.996323l-5.74806-4.166346c-.180064-.174068-.479392-.230586-.717909-.230586l-9.816769-.0023c-1.976045 0-3.591939 1.56209-3.591939 3.47234v27.778724c0 1.91025 1.615894 3.47234 3.591939 3.47234h36.218716c1.976046 0 3.591939-1.56209 3.591939-3.47234v-23.379231c.0608-1.910251-1.55513-3.472341-3.531115-3.472341z" fill="#fff"/><path d="m42.953846 44.972343h-8.074168v.960771h8.074168v8.074168h.960771v-8.074168h8.075398v-.960771h-8.075398v-8.075398h-.960771z" fill="#01aa50"/></g></svg>