<?xml version="1.0" encoding="UTF-8"?>
<svg width="34px" height="34px" viewBox="0 0 34 34" version="1.1" xmlns="http://www.w3.org/2000/svg" xmlns:xlink="http://www.w3.org/1999/xlink">
    <!-- Generator: sketchtool 50.2 (55047) - http://www.bohemiancoding.com/sketch -->
    <title>2DF695AD-97C1-4143-BA2D-E1914AF01AD4</title>
    <desc>Created with sketchtool.</desc>
    <defs></defs>
    <g id="Wireframes---Desktop" stroke="none" stroke-width="1" fill="none" fill-rule="evenodd" opacity="1">
        <g id="Dash---SmartGuide---SmartGuide-Templates" transform="translate(-33.000000, -653.000000)" fill="#FFFFFF">
            <g id="Category-Selection" transform="translate(-1.000000, 145.000000)">
                <g id="add_module_icon">
                    <g transform="translate(34.000000, 508.000000)">
                        <path d="M17,34 C7.61022,34 0,26.38978 0,17 C0,7.61022 7.61022,0 17,0 C26.38978,0 34,7.61022 34,17 C34,26.38978 26.38978,34 17,34 Z M16.5019,26.7257 L17.5644,26.7257 L17.5644,17.79662 L26.49484,17.79662 L26.49484,16.73412 L17.5644,16.73412 L17.5644,7.80368 L16.5019,7.80368 L16.5019,16.73412 L7.57282,16.73412 L7.57282,17.79662 L16.5019,17.79662 L16.5019,26.7257 Z" id="Combined-Shape"></path>
                    </g>
                </g>
            </g>
        </g>
    </g>
</svg>