<svg height="24" viewBox="0 0 24 24" width="24" xmlns="http://www.w3.org/2000/svg" xmlns:xlink="http://www.w3.org/1999/xlink"><mask id="a" fill="#fff"><circle cx="44.299999" cy="44.099998" fill="#fff" fill-rule="evenodd" r="43.900002"/></mask><mask id="b" fill="#fff"><circle cx="44.299999" cy="44.099998" fill="#fff" fill-rule="evenodd" r="43.900002"/></mask><mask id="c" fill="#fff"><circle cx="44.299999" cy="44.099998" fill="#fff" fill-rule="evenodd" r="43.900002"/></mask><g fill="none" fill-rule="evenodd" stroke="#1485e0" transform="matrix(.17577657 0 0 .17577657 2.38963914 .29343314)"><path d="m46 132.9c-1.4.3-2.8.4-4.2.5-.6 0-1.2.1-1.8.1" stroke-width="2"/><path d="m21.4 129c-18.2-9.9-24.9-32.7-15-50.9s32.7-24.9 50.9-15 24.9 32.7 15 50.9c-4.5 8.2-11.6 14.1-19.7 17.2" stroke-width="2"/><path d="m105.6 16.4-11.3 11.3c-2.3 2.3-6.1 2.3-8.5 0l-5.7-5.7c-2.3-2.3-2.3-6.1 0-8.5l11.3-11.3c2.3-2.3 6.1-2.3 8.5 0l5.7 5.7c2.3 2.3 2.3 6.1 0 8.5z" fill="#fff" stroke-width="4"/><circle cx="53.299999" cy="58.099998" fill="#fff" r="52.5" stroke-width="4"/><circle cx="44.299999" cy="44.099998" fill="#c4e1f7" mask="url(#a)" r="42.5" stroke-width="2" transform="translate(9 14)"/><g fill="#fff" mask="url(#b)" stroke-width="2" transform="translate(9 14)"><path d="m31.4 4.7c-5.2 9.7 13.5 14.1 6.8 26.4-6.9 12.7-32.5 10.1-37 18.5-2.6 4.8.1 11.3 8.9 15.5 16.8 8.1 37.3 1.2 46.4-15.5 9.2-17 4.1-37.4-12.4-47.2-.1.1-8.7-5.2-12.7 2.3z" transform="translate(40 15)"/></g><circle cx="45" cy="44.099998" mask="url(#c)" r="42.599998" stroke-width="2.0298" transform="translate(9 14)"/></g></svg>