<?xml version="1.0" encoding="UTF-8"?>
<svg width="33px" height="36px" viewBox="0 0 33 36" version="1.1" xmlns="http://www.w3.org/2000/svg" xmlns:xlink="http://www.w3.org/1999/xlink">
    <!-- Generator: sketchtool 50.2 (55047) - http://www.bohemiancoding.com/sketch -->
    <title>072AF1FB-738C-4590-8B0B-08C8776760FD</title>
    <desc>Created with sketchtool.</desc>
    <defs></defs>
    <g id="Wireframes---Desktop" stroke="none" stroke-width="1" fill="none" fill-rule="evenodd" opacity="1">
        <g id="Dash---SmartGuide---SmartGuide-Templates" transform="translate(-32.000000, -432.000000)" fill="#FFFFFF">
            <g id="Category-Selection" transform="translate(-1.000000, 145.000000)">
                <g id="Contacts">
                    <g transform="translate(1.000000, 287.000000)">
                        <path d="M37.0439023,0.4 L64.2048774,0.4 L64.2048774,35.1999992 L37.0439023,35.1999992 L37.0439023,30.9560969 L40.014634,30.9560969 C40.7125437,30.9560969 41.2878047,30.3808359 41.2878047,29.6829262 L41.2878047,28.8341457 C41.2878047,28.136236 40.7125437,27.560975 40.014634,27.560975 L37.0439023,27.560975 L37.0439023,23.3170727 L40.014634,23.3170727 C40.7125437,23.3170727 41.2878047,22.7418117 41.2878047,22.043902 L41.2878047,21.1951215 C41.2878047,20.4972118 40.7125437,19.9219508 40.014634,19.9219508 L37.0439023,19.9219508 L37.0439023,15.6780484 L40.014634,15.6780484 C40.7125437,15.6780484 41.2878047,15.1027875 41.2878047,14.4048777 L41.2878047,13.5560973 C41.2878047,12.8581875 40.7125437,12.2829266 40.014634,12.2829266 L37.0439023,12.2829266 L37.0439023,8.03902422 L40.014634,8.03902422 C40.7125437,8.03902422 41.2878047,7.46376326 41.2878047,6.76585352 L41.2878047,5.91707305 C41.2878047,5.21916331 40.7125437,4.64390235 40.014634,4.64390235 L37.0439023,4.64390235 L37.0439023,0.4 Z M33.2243902,5.49268282 L40.014634,5.49268282 C40.256668,5.49268282 40.4390242,5.67503906 40.4390242,5.91707305 L40.4390242,6.76585352 C40.4390242,7.00788751 40.256668,7.19024375 40.014634,7.19024375 L33.2243902,7.19024375 C32.9823562,7.19024375 32.8,7.00788751 32.8,6.76585352 L32.8,5.91707305 C32.8,5.67503906 32.9823562,5.49268282 33.2243902,5.49268282 Z M52.3219508,7.61463399 C50.2182484,7.61463399 48.5024387,9.33044371 48.5024387,11.4341461 C48.5024387,13.5378485 50.2182484,15.2536582 52.3219508,15.2536582 C54.4256532,15.2536582 56.1414629,13.5378485 56.1414629,11.4341461 C56.1414629,9.33044371 54.4256532,7.61463399 52.3219508,7.61463399 Z M33.2243902,13.131707 L40.014634,13.131707 C40.256668,13.131707 40.4390242,13.3140633 40.4390242,13.5560973 L40.4390242,14.4048777 C40.4390242,14.6469117 40.256668,14.829268 40.014634,14.829268 L33.2243902,14.829268 C32.9823562,14.829268 32.8,14.6469117 32.8,14.4048777 L32.8,13.5560973 C32.8,13.3140633 32.9823562,13.131707 33.2243902,13.131707 Z M52.3219508,17.3756094 C50.0226045,17.3756094 47.9469119,17.8928562 46.4067997,18.781402 C44.8666875,19.6699479 43.8339339,20.9679878 43.8339339,22.4682922 L43.8339339,27.560975 C43.8339339,27.7947207 44.0245785,27.9853652 44.2583241,27.9853652 L60.3851531,27.9853652 C60.6188987,27.9853652 60.8095433,27.7947207 60.8095433,27.560975 L60.8095433,22.4682922 C60.8095433,20.9679878 59.7767472,19.6699479 58.2366775,18.781402 C56.6966078,17.8928562 54.6210849,17.3756094 52.3215264,17.3756094 L52.3219508,17.3756094 Z M33.2243902,20.7707313 L40.014634,20.7707313 C40.256668,20.7707313 40.4390242,20.9530875 40.4390242,21.1951215 L40.4390242,22.043902 C40.4390242,22.285936 40.256668,22.4682922 40.014634,22.4682922 L33.2243902,22.4682922 C32.9823562,22.4682922 32.8,22.285936 32.8,22.043902 L32.8,21.1951215 C32.8,20.9530875 32.9823562,20.7707313 33.2243902,20.7707313 Z M33.2243902,28.4097555 L40.014634,28.4097555 C40.256668,28.4097555 40.4390242,28.5921117 40.4390242,28.8341457 L40.4390242,29.6829262 C40.4390242,29.9249602 40.256668,30.1073164 40.014634,30.1073164 L33.2243902,30.1073164 C32.9823562,30.1073164 32.8,29.9249602 32.8,29.6829262 L32.8,28.8341457 C32.8,28.5921117 32.9823562,28.4097555 33.2243902,28.4097555 Z" id="contacts_icon"></path>
                    </g>
                </g>
            </g>
        </g>
    </g>
</svg>