<svg height="24" viewBox="0 0 24 24" width="24" xmlns="http://www.w3.org/2000/svg"><path d="m169.34204 182.21416h.008c.2211-.004.39688-.18672.39296-.40704l-.2-10.7562c-.004-.2211-.1875-.40234-.40704-.39218-.2211.004-.39688.18672-.39296.40704l.2 10.7562c.003.21796.18203.39218.39922.39218zm2.925 0c.21718 0 .3961-.17422.4-.39296l.2-10.7562c.004-.2211-.17188-.40312-.39296-.40704h-.008c-.21718 0-.3961.17422-.4.39296l-.2 10.7562c-.004.2211.17187.40312.39296.40704zm3.929-11.5562c-.2289-.004-.40546.16641-.4125.38672l-.40078 12.4406c0 .39376-.32032.71484-.71328.71484h-7.7296c-.39454 0-.71484-.32032-.71484-.72734l-.4-12.4282c-.007-.2211-.1875-.3914-.4125-.38672-.2211.007-.39376.19219-.38672.4125l.4 12.4148c0 .83516.67968 1.51484 1.51484 1.51484h7.7296c.83438 0 1.51328-.67968 1.51328-1.50156l.4-12.4282c.006-.2211-.16719-.40546-.3875-.4125zm1.01172-2h-3.2218l-.33438-1.6125c-.0383-.18594-.20234-.31876-.3914-.31876h-4.9118c-.18984 0-.35312.13281-.3914.31876l-.33438 1.6125h-3.2226c-.2211 0-.4.17891-.4.4 0 .2211.17891.4.4.4h3.5476.00078 5.711.002.00079 3.546c.2211 0 .4-.17891.4-.4 0-.2211-.17891-.4-.4-.4zm-8.768 0 .23438-1.13124h4.261l.23438 1.13124z" fill-rule="evenodd" opacity=".5" transform="matrix(1.3084059 0 0 1.3084059 -211.5997536 -218.0550914)"/></svg>