<svg height="24" viewBox="0 0 24 24" width="24" xmlns="http://www.w3.org/2000/svg" xmlns:xlink="http://www.w3.org/1999/xlink"><mask id="a" fill="#fff"><circle cx="44.299999" cy="44.099998" fill="#fff" fill-rule="evenodd" r="43.900002"/></mask><mask id="b" fill="#fff"><circle cx="44.299999" cy="44.099998" fill="#fff" fill-rule="evenodd" r="43.900002"/></mask><mask id="c" fill="#fff"><circle cx="44.299999" cy="44.099998" fill="#fff" fill-rule="evenodd" r="43.900002"/></mask><g fill="none" fill-rule="evenodd" stroke="#1485e0"><path d="m10.44472834 23.731384833c-.246502718.052822011-.493005436.070429348-.739508154.088036685-.105644022 0-.211288044.017607337-.316932066.017607337" stroke-width=".35214674"/><path d="m6.113323438 23.04469869c-3.204535334-1.743126363-4.384226913-5.757599199-2.64110055-8.962134533s5.757599199-4.384226913 8.962134533-2.64110055 4.384226913 5.757599199 2.64110055 8.962134533c-.792330165 1.443801634-2.042451092 2.482634517-3.468645389 3.028461964" stroke-width=".35214674"/><path d="m20.938701192 3.218837228-1.989629081 1.989629081c-.404968751.404968751-1.074047557.404968751-1.496623645 0l-1.003618209-1.003618209c-.404968751-.404968751-.404968751-1.074047557 0-1.496623645l1.989629081-1.989629081c.404968751-.404968751 1.074047557-.404968751 1.496623645 0l1.003618209 1.003618209c.404968751.404968751.404968751 1.074047557 0 1.496623645z" fill="#fff" stroke-width=".70429348"/><circle cx="11.73006376493" cy="10.56109640485" fill="#fff" r="9.243851925" stroke-width=".70429348"/><circle cx="44.299999" cy="44.099998" fill="#c4e1f7" mask="url(#a)" r="42.5" stroke-width="2" transform="matrix(.17607337 0 0 .17607337 3.93001365 2.79626114)"/><g fill="#fff" mask="url(#b)" stroke-width="2" transform="matrix(.17607337 0 0 .17607337 3.93001365 2.79626114)"><path d="m31.4 4.7c-5.2 9.7 13.5 14.1 6.8 26.4-6.9 12.7-32.5 10.1-37 18.5-2.6 4.8.1 11.3 8.9 15.5 16.8 8.1 37.3 1.2 46.4-15.5 9.2-17 4.1-37.4-12.4-47.2-.1.1-8.7-5.2-12.7 2.3z" transform="translate(40 15)"/></g><circle cx="45" cy="44.099998" mask="url(#c)" r="42.599998" stroke-width="2.0298" transform="matrix(.17607337 0 0 .17607337 3.93001365 2.79626114)"/></g></svg>