
<svg width="129px" height="156px" viewBox="0 0 129 156" version="1.1" xmlns="http://www.w3.org/2000/svg" xmlns:xlink="http://www.w3.org/1999/xlink">
    <!-- Generator: Sketch 50.2 (55047) - http://www.bohemiancoding.com/sketch -->
    <desc>Created with Sketch.</desc>
    <defs></defs>
    <g id="Wireframes---Desktop" stroke="none" stroke-width="1" fill="none" fill-rule="evenodd">
        <g id="Dash---My-Vault" transform="translate(-802.000000, -301.000000)">
            <g id="Main-Section" transform="translate(576.000000, 215.000000)">
                <g id="documents" transform="translate(227.000000, 87.000000)">
                    <g id="front_4_">
                        <rect id="base_7_" stroke="#1485E0" stroke-width="1.99994025" fill="#FFFFFF" transform="translate(63.385210, 77.005730) rotate(-14.999329) translate(-63.385210, -77.005730) " x="15.8866291" y="10.2577242" width="94.9971618" height="133.496012"></rect>
                        <g id="lines_3_" transform="translate(6.500000, 14.000000)" stroke="#C4E1F7">
                            <path d="M11.2,10.3 L43.7,131.5" id="XMLID_268_"></path>
                            <path d="M0.2,23.3 L86.65,0.15" id="XMLID_267_" stroke-width="0.5"></path>
                            <path d="M1.25,27.2 L87.7,4" id="XMLID_266_" stroke-width="0.5"></path>
                            <path d="M2.3,31.05 L88.75,7.9" id="XMLID_265_" stroke-width="0.5"></path>
                            <path d="M3.35,34.9 L89.8,11.75" id="XMLID_264_" stroke-width="0.5"></path>
                            <path d="M4.35,38.8 L90.8,15.6" id="XMLID_263_" stroke-width="0.5"></path>
                            <path d="M5.4,42.65 L91.85,19.5" id="XMLID_262_" stroke-width="0.5"></path>
                            <path d="M6.45,46.5 L92.9,23.35" id="XMLID_261_" stroke-width="0.5"></path>
                            <path d="M7.45,50.35 L93.9,27.2" id="XMLID_260_" stroke-width="0.5"></path>
                            <path d="M8.5,54.25 L94.95,31.05" id="XMLID_259_" stroke-width="0.5"></path>
                            <path d="M9.55,58.1 L96,34.95" id="XMLID_258_" stroke-width="0.5"></path>
                            <path d="M10.55,61.95 L97,38.8" id="XMLID_257_" stroke-width="0.5"></path>
                            <path d="M11.6,65.8 L98.05,42.65" id="XMLID_256_" stroke-width="0.5"></path>
                            <path d="M12.65,69.7 L99.1,46.5" id="XMLID_255_" stroke-width="0.5"></path>
                            <path d="M13.7,73.55 L100.15,50.4" id="XMLID_254_" stroke-width="0.5"></path>
                            <path d="M14.7,77.4 L101.15,54.25" id="XMLID_253_" stroke-width="0.5"></path>
                            <path d="M15.75,81.3 L102.2,58.1" id="XMLID_252_" stroke-width="0.5"></path>
                            <path d="M16.8,85.15 L103.25,62" id="XMLID_251_" stroke-width="0.5"></path>
                            <path d="M17.8,89 L104.25,65.85" id="XMLID_250_" stroke-width="0.5"></path>
                            <path d="M18.85,92.85 L105.3,69.7" id="XMLID_249_" stroke-width="0.5"></path>
                            <path d="M19.9,96.75 L106.35,73.55" id="XMLID_248_" stroke-width="0.5"></path>
                            <path d="M20.95,100.6 L107.4,77.45" id="XMLID_247_" stroke-width="0.5"></path>
                            <path d="M21.95,104.45 L108.4,81.3" id="XMLID_246_" stroke-width="0.5"></path>
                            <path d="M23,108.3 L109.45,85.15" id="XMLID_245_" stroke-width="0.5"></path>
                            <path d="M24.05,112.2 L110.5,89" id="XMLID_244_" stroke-width="0.5"></path>
                            <path d="M25.05,116.05 L111.5,92.9" id="XMLID_243_" stroke-width="0.5"></path>
                            <path d="M26.1,119.9 L112.55,96.75" id="XMLID_242_" stroke-width="0.5"></path>
                            <path d="M27.15,123.8 L113.6,100.6" id="XMLID_241_" stroke-width="0.5"></path>
                            <path d="M28.15,127.65 L114.6,104.5" id="XMLID_240_" stroke-width="0.5"></path>
                            <path d="M29.2,131.5 L115.65,108.35" id="XMLID_239_" stroke-width="0.5"></path>
                        </g>
                        <g id="holes_3_" transform="translate(8.000000, 33.000000)">
                            <g id="XMLID_238_" transform="translate(28.000000, 103.000000)">
                                <path d="M2.55,4.8 C1.65,4.8 0.85,4.2 0.6,3.3 C0.3,2.25 0.95,1.15 2,0.85 C2.15,0.8 2.35,0.8 2.5,0.8 C3.4,0.8 4.2,1.4 4.45,2.3 C4.75,3.35 4.1,4.45 3.05,4.75 C2.9,4.75 2.75,4.8 2.55,4.8 L2.55,4.8 Z" id="XMLID_507_" fill="#FFFFFF"></path>
                                <path d="M2.55,1.3 L2.55,1.3 C3.25,1.3 3.8,1.75 4,2.4 C4.2,3.2 3.75,4 2.95,4.25 C2.8,4.3 2.7,4.3 2.55,4.3 C1.85,4.3 1.3,3.85 1.1,3.2 C0.9,2.4 1.35,1.6 2.15,1.35 C2.3,1.3 2.45,1.3 2.55,1.3 L2.55,1.3 Z M2.55,0.3 C2.35,0.3 2.1,0.35 1.9,0.4 C0.55,0.75 -0.25,2.15 0.15,3.45 C0.45,4.55 1.45,5.3 2.55,5.3 C2.75,5.3 3,5.25 3.2,5.2 C4.55,4.85 5.35,3.45 4.95,2.15 C4.7,1 3.65,0.3 2.55,0.3 L2.55,0.3 L2.55,0.3 Z" id="XMLID_504_" fill="#1485E0"></path>
                            </g>
                            <g id="XMLID_237_" transform="translate(14.000000, 51.500000)">
                                <path d="M2.8,4.85 C1.9,4.85 1.1,4.25 0.85,3.35 C0.7,2.85 0.8,2.3 1.05,1.85 C1.3,1.4 1.75,1.05 2.25,0.9 C2.4,0.85 2.6,0.85 2.75,0.85 C3.65,0.85 4.45,1.45 4.7,2.35 C4.85,2.85 4.75,3.4 4.5,3.85 C4.25,4.3 3.8,4.65 3.3,4.8 C3.15,4.85 2.95,4.85 2.8,4.85 L2.8,4.85 Z" id="XMLID_502_" fill="#FFFFFF"></path>
                                <path d="M2.8,1.35 L2.8,1.35 C3.5,1.35 4.05,1.8 4.25,2.45 C4.35,2.85 4.3,3.25 4.1,3.6 C3.9,3.95 3.6,4.2 3.2,4.3 C3.05,4.35 2.95,4.35 2.8,4.35 C2.1,4.35 1.55,3.9 1.35,3.25 C1.25,2.85 1.3,2.45 1.5,2.1 C1.7,1.75 2,1.5 2.4,1.4 C2.55,1.35 2.65,1.35 2.8,1.35 L2.8,1.35 Z M2.8,0.35 C2.6,0.35 2.35,0.4 2.15,0.45 C0.8,0.8 5.71209746e-14,2.2 0.4,3.5 C0.7,4.6 1.7,5.35 2.8,5.35 C3,5.35 3.25,5.3 3.45,5.25 C4.8,4.9 5.6,3.5 5.2,2.2 C4.9,1.1 3.9,0.35 2.8,0.35 L2.8,0.35 L2.8,0.35 Z" id="XMLID_499_" fill="#1485E0"></path>
                            </g>
                            <g id="XMLID_236_">
                                <path d="M3,4.9 C2.1,4.9 1.3,4.3 1.05,3.4 C0.75,2.35 1.4,1.25 2.45,0.95 C2.6,0.9 2.8,0.9 2.95,0.9 C3.85,0.9 4.65,1.5 4.9,2.4 C5.2,3.45 4.55,4.55 3.5,4.85 C3.35,4.9 3.2,4.9 3,4.9 L3,4.9 Z" id="XMLID_497_" fill="#FFFFFF"></path>
                                <path d="M3,1.4 L3,1.4 C3.7,1.4 4.25,1.85 4.45,2.5 C4.65,3.3 4.2,4.1 3.4,4.35 C3.25,4.4 3.15,4.4 3,4.4 C2.3,4.4 1.75,3.95 1.55,3.3 C1.45,2.9 1.5,2.5 1.7,2.15 C1.9,1.8 2.2,1.55 2.6,1.45 C2.75,1.45 2.85,1.4 3,1.4 L3,1.4 Z M3,0.4 C2.8,0.4 2.55,0.45 2.35,0.5 C1,0.85 0.2,2.25 0.6,3.55 C0.9,4.65 1.9,5.4 3,5.4 C3.2,5.4 3.45,5.35 3.65,5.3 C5,4.95 5.8,3.55 5.4,2.25 C5.1,1.15 4.1,0.4 3,0.4 L3,0.4 L3,0.4 Z" id="XMLID_494_" fill="#1485E0"></path>
                            </g>
                        </g>
                    </g>
                    <g id="front_3_" transform="translate(16.000000, 10.500000)">
                        <rect id="base_6_" stroke="#1485E0" stroke-width="2" fill="#FFFFFF" x="0" y="0" width="95" height="133.5"></rect>
                        <g id="lines_1_" transform="translate(3.000000, 4.000000)" stroke="#C4E1F7">
                            <path d="M14,0 L14,125.5" id="XMLID_235_"></path>
                            <path d="M0,9.75 L89.5,9.75" id="XMLID_234_" stroke-width="0.5"></path>
                            <path d="M0,13.75 L89.5,13.75" id="XMLID_233_" stroke-width="0.5"></path>
                            <path d="M0,17.75 L89.5,17.75" id="XMLID_232_" stroke-width="0.5"></path>
                            <path d="M0,21.75 L89.5,21.75" id="XMLID_231_" stroke-width="0.5"></path>
                            <path d="M0,25.75 L89.5,25.75" id="XMLID_230_" stroke-width="0.5"></path>
                            <path d="M0,29.75 L89.5,29.75" id="XMLID_229_" stroke-width="0.5"></path>
                            <path d="M0,33.75 L89.5,33.75" id="XMLID_228_" stroke-width="0.5"></path>
                            <path d="M0,37.75 L89.5,37.75" id="XMLID_227_" stroke-width="0.5"></path>
                            <path d="M0,41.75 L89.5,41.75" id="XMLID_226_" stroke-width="0.5"></path>
                            <path d="M0,45.75 L89.5,45.75" id="XMLID_225_" stroke-width="0.5"></path>
                            <path d="M0,49.75 L89.5,49.75" id="XMLID_224_" stroke-width="0.5"></path>
                            <path d="M0,53.75 L89.5,53.75" id="XMLID_223_" stroke-width="0.5"></path>
                            <path d="M0,57.75 L89.5,57.75" id="XMLID_222_" stroke-width="0.5"></path>
                            <path d="M0,61.75 L89.5,61.75" id="XMLID_221_" stroke-width="0.5"></path>
                            <path d="M0,65.75 L89.5,65.75" id="XMLID_220_" stroke-width="0.5"></path>
                            <path d="M0,69.75 L89.5,69.75" id="XMLID_219_" stroke-width="0.5"></path>
                            <path d="M0,73.75 L89.5,73.75" id="XMLID_218_" stroke-width="0.5"></path>
                            <path d="M0,77.75 L89.5,77.75" id="XMLID_217_" stroke-width="0.5"></path>
                            <path d="M0,81.75 L89.5,81.75" id="XMLID_216_" stroke-width="0.5"></path>
                            <path d="M0,85.75 L89.5,85.75" id="XMLID_215_" stroke-width="0.5"></path>
                            <path d="M0,89.75 L89.5,89.75" id="XMLID_214_" stroke-width="0.5"></path>
                            <path d="M0,93.75 L89.5,93.75" id="XMLID_213_" stroke-width="0.5"></path>
                            <path d="M0,97.75 L89.5,97.75" id="XMLID_212_" stroke-width="0.5"></path>
                            <path d="M0,101.75 L89.5,101.75" id="XMLID_211_" stroke-width="0.5"></path>
                            <path d="M0,105.75 L89.5,105.75" id="XMLID_210_" stroke-width="0.5"></path>
                            <path d="M0,109.75 L89.5,109.75" id="XMLID_209_" stroke-width="0.5"></path>
                            <path d="M0,113.75 L89.5,113.75" id="XMLID_208_" stroke-width="0.5"></path>
                            <path d="M0,117.75 L89.5,117.75" id="XMLID_207_" stroke-width="0.5"></path>
                            <path d="M0,121.75 L89.5,121.75" id="XMLID_206_" stroke-width="0.5"></path>
                        </g>
                        <g id="holes_1_" transform="translate(4.500000, 10.500000)">
                            <g id="XMLID_205_" transform="translate(0.000000, 106.500000)">
                                <path d="M2.9,4.75 C1.8,4.75 0.9,3.85 0.9,2.75 C0.9,1.65 1.8,0.75 2.9,0.75 C4,0.75 4.9,1.65 4.9,2.75 C4.9,3.85 4.05,4.75 2.9,4.75 L2.9,4.75 Z" id="XMLID_525_" fill="#FFFFFF"></path>
                                <path d="M2.9,1.25 C3.75,1.25 4.4,1.9 4.4,2.75 C4.4,3.6 3.75,4.25 2.9,4.25 C2.05,4.25 1.4,3.6 1.4,2.75 C1.4,1.9 2.1,1.25 2.9,1.25 L2.9,1.25 Z M2.9,0.25 C1.5,0.25 0.4,1.35 0.4,2.75 C0.4,4.15 1.5,5.25 2.9,5.25 C4.3,5.25 5.4,4.15 5.4,2.75 C5.4,1.35 4.3,0.25 2.9,0.25 L2.9,0.25 L2.9,0.25 Z" id="XMLID_490_" fill="#1485E0"></path>
                            </g>
                            <g id="XMLID_204_" transform="translate(0.000000, 53.500000)">
                                <path d="M2.9,4.5 C1.8,4.5 0.9,3.6 0.9,2.5 C0.9,1.4 1.8,0.5 2.9,0.5 C4,0.5 4.9,1.4 4.9,2.5 C4.9,3.6 4.05,4.5 2.9,4.5 L2.9,4.5 Z" id="XMLID_531_" fill="#FFFFFF"></path>
                                <path d="M2.9,1 C3.75,1 4.4,1.65 4.4,2.5 C4.4,3.35 3.75,4 2.9,4 C2.05,4 1.4,3.35 1.4,2.5 C1.4,1.65 2.1,1 2.9,1 L2.9,1 Z M2.9,0 C1.5,0 0.4,1.1 0.4,2.5 C0.4,3.9 1.5,5 2.9,5 C4.3,5 5.4,3.9 5.4,2.5 C5.4,1.1 4.3,0 2.9,0 L2.9,0 L2.9,0 Z" id="XMLID_526_" fill="#1485E0"></path>
                            </g>
                            <g id="XMLID_203_">
                                <path d="M2.9,4.75 C1.8,4.75 0.9,3.85 0.9,2.75 C0.9,1.65 1.8,0.75 2.9,0.75 C4,0.75 4.9,1.65 4.9,2.75 C4.9,3.85 4.05,4.75 2.9,4.75 L2.9,4.75 Z" id="XMLID_549_" fill="#FFFFFF"></path>
                                <path d="M2.9,1.25 C3.75,1.25 4.4,1.9 4.4,2.75 C4.4,3.6 3.75,4.25 2.9,4.25 C2.05,4.25 1.4,3.6 1.4,2.75 C1.4,1.9 2.1,1.25 2.9,1.25 L2.9,1.25 Z M2.9,0.25 C1.5,0.25 0.4,1.35 0.4,2.75 C0.4,4.15 1.5,5.25 2.9,5.25 C4.3,5.25 5.4,4.15 5.4,2.75 C5.4,1.35 4.3,0.25 2.9,0.25 L2.9,0.25 L2.9,0.25 Z" id="XMLID_532_" fill="#1485E0"></path>
                            </g>
                        </g>
                    </g>
                </g>
            </g>
        </g>
    </g>
</svg>