<svg height="24" viewBox="0 0 24 24" width="24" xmlns="http://www.w3.org/2000/svg"><g fill-rule="evenodd" opacity=".5" transform="matrix(1.1019354 0 0 1.1019354 -.192981 .880529)"><path d="m2.5130769 19.794615h17.0512821c1.256 0 2.281641-1.025641 2.281641-2.256615v-7.7684615c0-.2053282-.179287-.3846154-.384615-.3846154-.205329 0-.384616.1792872-.384616.3846154v7.7694875c0 .820307-.692102 1.487384-1.51241 1.487384l-17.0512821-.001c-.846359 0-1.5124102-.667077-1.5124102-1.487385l-.001-7.7684615c0-.2053282-.17928718-.3846154-.38461667-.3846154-.20532821 0-.38461539.1792872-.38461539.3846154v7.7694875c0 1.256 1.02564226 2.255615 2.28264226 2.255615z"/><path d="m10.795385.20538461c-.205329 0-.384616.17928719-.384616.38461539v15.128205l-4.0005126-3.461538c-.1542461-.128205-.4106667-.128205-.5388718.05108-.1282051.154246-.1282051.410666.051082.538872l4.6664104 4.000512c.02604.02604.07712.05108.102164.05108h.02604c.02604 0 .07712.02604.128205.02604.05108 0 .07712 0 .128205-.02604h.02604c.02604-.02604.07712-.02604.102164-.05108l4.666411-4.000512c.154246-.128206.179287-.384616.05108-.538872-.128205-.154257-.384616-.179287-.538872-.05108l-4.100513 3.435384v-15.12820485c0-.2053282-.154246-.3585641-.384615-.3585641z"/></g></svg>