<svg height="24" viewBox="0 0 24 24" width="24" xmlns="http://www.w3.org/2000/svg"><path d="m14.32932742863 8.66593111471c-.04845666364-.16816916582-.21992402912-.26466840888-.3858031456-.21403371261-.16401007374.04968381291-.25719160861.22741152761-.20874123804.39558383997l2.14053850439 7.38331792515h-1.90383714212c-.17239874031 0-.31031773257.14237071223-.31031773257.31818910852v6.2595789472c0 .30862489587-.24414606787.55800491272-.54420609112.55800491272-.30006631632 0-.54420609112-.25033404674-.54420609112-.55800491272v-6.26055752008c0-.17581336183-.13885036708-.31818910852-.31032402564-.31818910852-.17146736548 0-.31031773257.14237071223-.31031773257.31818910852v6.2595789472c0 .30767086598-.24414606787.55800491272-.54420609112.55800491272s-.54516263824-.25033404674-.54516263824-.55800491272v-6.2595789472c0-.17581336183-.13884407401-.31818910852-.31031773257-.31818910852h-1.90290576729l2.13960712956-7.38331792515c.04845666364-.16816979512-.04474375045-.344949773-.20874123804-.39558383997-.16401007374-.05063406697-.3364214002.04586391748-.3858031456.21403434191l-2.25888603899 7.79132806746c-.02794124501.09650616544-.00931374834.1997018677.04845666364.2809102015.05871437296.08026185559.15096453299.12803886733.24882182125.12803886733h2.00913284291v5.94134075271c0 .65834418905.52278446994 1.19342909987 1.16484784932 1.19342909987.33920923163 0 .64113200454-.15097082607.85452382368-.38888171701.21340440529.23792284778.51533976435.38888171701.85453011675.38888171701.64206337938 0 1.16484155625-.53508491082 1.16484155625-1.19342909987l.00188792196-5.94036217982h2.01006421774c.09691332728 0 .18916978039-.04682046461.24882182125-.12803886733.05777041198-.08026185559.07641049479-.18441410497.04845666364-.28091083081l-2.26073620251-7.79132806746zm3.23464591787 3.56592965311-1.55715803261-5.25716538609c-.00440515124-.01719896906-.0112016703-.03344139098-.01862749667-.04873355886-.00654479613-.0152858748-.01025770932-.02580160012-.0139706225-.03726128642-.00836978736-.02962149555-.01957145765-.0592429911-.03448604114-.09554961832-.39231018329-1.24406379615-1.52268457762-2.07823393318-2.82170074756-2.07823393318h-1.80039160486c-1.4211080831 0-2.6520835456 1.02812139444-2.92142078549 2.41552692401l-1.43415991691 4.81857845972c-.17146736548.57233927486.13419349292 1.15903745483.69426442157 1.33674691962.16307240583.05159690717.33734648196-.04300056918.38765960219-.21021318787.0503445856-.16816979512-.04191186751-.3459038029-.20501573871-.39749189976-.23576369436-.07453012452-.35504889687-.3019473159-.28328898317-.54274169298l1.44255487656-4.84915461447c.21899265429-1.12080451792 1.19466443014-1.93491674274 2.32131961821-1.93491674274h1.80132297969c1.03437985574 0 1.93366001602.66504631201 2.23651416377 1.65493539884.00440515124.0152858748.0112016703.03153458981.01768353569.04586391748.00748875711.0152858748.01025770932.02580160012.01491458348.03726128642.00931374834.02866494843.01957145765.05732989685.03448604114.0926856407l1.55065099492 5.23612827169c.06989087096.23123268166-.04474375045.47011648172-.25905435828.54274169298-.16214732407.05637334973-.25067827785.23600975353-.1956956973.40226141994.04379978947.13281593919.16401007374.21785486665.29354669249.21785486665.03259811918 0 .06523399679-.00572669661.09785099519-.01624242193.53397355409-.18441410497.82191311836-.77013119484.65232108869-1.33293331726l-.00011327532.00004908597zm-5.30154287968-7.88012207169c1.14714543441 0 2.07996767484-.95647475606 2.07996767484-2.13270803341s-.93282224044-2.13270866272-2.07996767484-2.13270866272-2.0808927566.95647538537-2.0808927566 2.13270866272c.00062930732 1.17623327735.9337473222 2.13270803341 2.0808927566 2.13270803341zm0-3.63001705197c.80514837135 0 1.45932591664.67077049139 1.45932591664 1.49633044567s-.65417754529 1.49633044567-1.45932591664 1.49633044567c-.80514207828 0-1.4602509984-.67077049139-1.4602509984-1.49633044567 0-.82460592438.65510892012-1.49633044567 1.4602509984-1.49633044567z" fill="#4a90e2" fill-rule="evenodd"/></svg>