<?xml version="1.0" encoding="UTF-8" standalone="no"?>
<!-- Generator: Adobe Illustrator 16.0.0, SVG Export Plug-In . SVG Version: 6.00 Build 0)  -->

<svg
   xmlns:dc="http://purl.org/dc/elements/1.1/"
   xmlns:cc="http://creativecommons.org/ns#"
   xmlns:rdf="http://www.w3.org/1999/02/22-rdf-syntax-ns#"
   xmlns:svg="http://www.w3.org/2000/svg"
   xmlns="http://www.w3.org/2000/svg"
   xmlns:sodipodi="http://sodipodi.sourceforge.net/DTD/sodipodi-0.dtd"
   xmlns:inkscape="http://www.inkscape.org/namespaces/inkscape"
   version="1.1"
   id="Capa_1"
   x="0px"
   y="0px"
   width="24"
   height="24"
   viewBox="0 0 23.999999 23.999999"
   xml:space="preserve"
   sodipodi:docname="google-plus.svg"
   inkscape:version="0.92.3 (2405546, 2018-03-11)"><metadata
   id="metadata3801"><rdf:RDF><cc:Work
       rdf:about=""><dc:format>image/svg+xml</dc:format><dc:type
         rdf:resource="http://purl.org/dc/dcmitype/StillImage" /><dc:title></dc:title></cc:Work></rdf:RDF></metadata><defs
   id="defs3799" /><sodipodi:namedview
   pagecolor="#ffffff"
   bordercolor="#666666"
   borderopacity="1"
   objecttolerance="10"
   gridtolerance="10"
   guidetolerance="10"
   inkscape:pageopacity="0"
   inkscape:pageshadow="2"
   inkscape:window-width="1413"
   inkscape:window-height="822"
   id="namedview3797"
   showgrid="false"
   inkscape:zoom="8.365435"
   inkscape:cx="36.220971"
   inkscape:cy="23.854518"
   inkscape:window-x="280"
   inkscape:window-y="130"
   inkscape:window-maximized="0"
   inkscape:current-layer="Capa_1" />
<g
   id="g3764"
   transform="matrix(0.25494758,0,0,0.24786731,-0.28066744,-0.001003)">
	<g
   id="g3762">
		<path
   d="M 62.617,0 H 39.525 C 29.235,0 22.112,2.256 15.701,7.552 10.659,11.902 7.65,18.224 7.65,24.464 c 0,9.614 7.33,19.831 20.913,19.831 1.306,0 2.752,-0.134 4.028,-0.253 l -0.188,0.457 c -0.546,1.308 -1.063,2.542 -1.063,4.468 0,3.75 1.809,6.063 3.558,8.298 l 0.22,0.283 -0.391,0.027 c -5.609,0.384 -16.049,1.1 -23.675,5.787 -9.007,5.355 -9.707,13.145 -9.707,15.404 0,8.988 8.376,18.06 27.09,18.06 21.76,0 33.146,-12.005 33.146,-23.863 0.002,-8.771 -5.141,-13.101 -10.6,-17.698 l -4.605,-3.582 c -1.423,-1.179 -3.195,-2.646 -3.195,-5.364 0,-2.672 1.772,-4.436 3.336,-5.992 L 46.68,40.162 C 51.653,36.245 57.289,31.804 57.289,22.198 57.289,12.54 51.254,7.549 48.352,5.15 h 7.663 c 0.094,0 0.188,-0.026 0.266,-0.077 l 6.601,-4.15 C 63.07,0.804 63.158,0.575 63.096,0.361 63.037,0.147 62.839,0 62.617,0 Z M 34.614,91.535 c -13.264,0 -22.176,-6.195 -22.176,-15.416 0,-6.021 3.645,-10.396 10.824,-12.997 5.749,-1.935 13.17,-2.031 13.244,-2.031 1.257,0 1.889,0 2.893,0.126 9.281,6.605 13.743,10.073 13.743,16.678 -0.001,8.414 -7.101,13.64 -18.528,13.64 z M 34.489,40.756 c -11.132,0 -15.752,-14.633 -15.752,-22.468 0,-3.984 0.906,-7.042 2.77,-9.351 2.023,-2.531 5.487,-4.166 8.825,-4.166 10.221,0 15.873,13.738 15.873,23.233 0,1.498 0,6.055 -3.148,9.22 -2.117,2.113 -5.56,3.532 -8.568,3.532 z"
   id="path3758"
   inkscape:connector-curvature="0" />
		<path
   d="M 94.982,45.223 H 82.814 V 33.098 c 0,-0.276 -0.225,-0.5 -0.5,-0.5 H 77.08 c -0.276,0 -0.5,0.224 -0.5,0.5 V 45.223 H 64.473 c -0.276,0 -0.5,0.224 -0.5,0.5 v 5.304 c 0,0.275 0.224,0.5 0.5,0.5 H 76.58 V 63.73 c 0,0.275 0.224,0.5 0.5,0.5 h 5.234 c 0.275,0 0.5,-0.225 0.5,-0.5 V 51.525 h 12.168 c 0.276,0 0.5,-0.223 0.5,-0.5 v -5.302 c 0,-0.277 -0.223,-0.5 -0.5,-0.5 z"
   id="path3760"
   inkscape:connector-curvature="0" />
	</g>
</g>
<g
   id="g3766"
   transform="matrix(0.25494758,0,0,0.24786731,1.0020955,-0.001003)">
</g>
<g
   id="g3768"
   transform="matrix(0.25494758,0,0,0.24786731,1.0020955,-0.001003)">
</g>
<g
   id="g3770"
   transform="matrix(0.25494758,0,0,0.24786731,1.0020955,-0.001003)">
</g>
<g
   id="g3772"
   transform="matrix(0.25494758,0,0,0.24786731,1.0020955,-0.001003)">
</g>
<g
   id="g3774"
   transform="matrix(0.25494758,0,0,0.24786731,1.0020955,-0.001003)">
</g>
<g
   id="g3776"
   transform="matrix(0.25494758,0,0,0.24786731,1.0020955,-0.001003)">
</g>
<g
   id="g3778"
   transform="matrix(0.25494758,0,0,0.24786731,1.0020955,-0.001003)">
</g>
<g
   id="g3780"
   transform="matrix(0.25494758,0,0,0.24786731,1.0020955,-0.001003)">
</g>
<g
   id="g3782"
   transform="matrix(0.25494758,0,0,0.24786731,1.0020955,-0.001003)">
</g>
<g
   id="g3784"
   transform="matrix(0.25494758,0,0,0.24786731,1.0020955,-0.001003)">
</g>
<g
   id="g3786"
   transform="matrix(0.25494758,0,0,0.24786731,1.0020955,-0.001003)">
</g>
<g
   id="g3788"
   transform="matrix(0.25494758,0,0,0.24786731,1.0020955,-0.001003)">
</g>
<g
   id="g3790"
   transform="matrix(0.25494758,0,0,0.24786731,1.0020955,-0.001003)">
</g>
<g
   id="g3792"
   transform="matrix(0.25494758,0,0,0.24786731,1.0020955,-0.001003)">
</g>
<g
   id="g3794"
   transform="matrix(0.25494758,0,0,0.24786731,1.0020955,-0.001003)">
</g>
</svg>