
<svg width="112px" height="137px" viewBox="0 0 112 137" version="1.1" xmlns="http://www.w3.org/2000/svg" xmlns:xlink="http://www.w3.org/1999/xlink">
    <!-- Generator: Sketch 50.2 (55047) - http://www.bohemiancoding.com/sketch -->
    <desc>Created with Sketch.</desc>
    <defs>
        <circle id="path-1" cx="44.3" cy="44.1" r="43.9"></circle>
        <circle id="path-3" cx="44.3" cy="44.1" r="43.9"></circle>
        <circle id="path-5" cx="44.3" cy="44.1" r="43.9"></circle>
        <circle id="path-7" cx="44.3" cy="44.1" r="43.9"></circle>
    </defs>
    <g id="Wireframes---Desktop" stroke="none" stroke-width="1" fill="none" fill-rule="evenodd">
        <g id="Initial-Screen" transform="translate(-634.000000, -306.000000)">
            <g id="cofee" transform="translate(636.000000, 308.000000)">
                <path d="M46,132.9 C44.6,133.2 43.2,133.3 41.8,133.4 C41.2,133.4 40.6,133.5 40,133.5" id="XMLID_202_" stroke="#1485E0" stroke-width="2"></path>
                <path d="M21.4,129 C3.2,119.1 -3.5,96.3 6.4,78.1 C16.3,59.9 39.1,53.2 57.3,63.1 C75.5,73 82.2,95.8 72.3,114 C67.8,122.2 60.7,128.1 52.6,131.2" id="XMLID_201_" stroke="#1485E0" stroke-width="2"></path>
                <path d="M105.6,16.4 L94.3,27.7 C92,30 88.2,30 85.8,27.7 L80.1,22 C77.8,19.7 77.8,15.9 80.1,13.5 L91.4,2.2 C93.7,-0.1 97.5,-0.1 99.9,2.2 L105.6,7.9 C107.9,10.2 107.9,14 105.6,16.4 L105.6,16.4 Z" id="take" stroke="#1485E0" stroke-width="4" fill="#FFFFFF"></path>
                <circle id="base_4_" stroke="#1485E0" stroke-width="4" fill="#FFFFFF" cx="53.3" cy="58.1" r="52.5"></circle>
                <g id="XMLID_847_" transform="translate(9.000000, 14.000000)">
                    <g id="inside-Clipped">
                        <mask id="mask-2" fill="white">
                            <use xlink:href="#path-1"></use>
                        </mask>
                        <g id="inside_1_"></g>
                        <circle id="inside" stroke="#1485E0" stroke-width="2" fill="#C4E1F7" mask="url(#mask-2)" cx="44.3" cy="44.1" r="42.5"></circle>
                    </g>
                    <g id="cream-Clipped">
                        <mask id="mask-4" fill="white">
                            <use xlink:href="#path-3"></use>
                        </mask>
                        <g id="inside_1_"></g>
                    </g>
                    <g id="XMLID_849_-Clipped">
                        <mask id="mask-6" fill="white">
                            <use xlink:href="#path-5"></use>
                        </mask>
                        <g id="inside_1_"></g>
                        <g id="XMLID_849_" mask="url(#mask-6)" fill="#FFFFFF" stroke="#1485E0" stroke-width="2">
                            <g transform="translate(40.000000, 15.000000)" id="XMLID_199_">
                                <path d="M31.4,4.7 C26.2,14.4 44.9,18.8 38.2,31.1 C31.3,43.8 5.7,41.2 1.2,49.6 C-1.4,54.4 1.3,60.9 10.1,65.1 C26.9,73.2 47.4,66.3 56.5,49.6 C65.7,32.6 60.6,12.2 44.1,2.4 C44,2.5 35.4,-2.8 31.4,4.7 L31.4,4.7 Z"></path>
                            </g>
                        </g>
                    </g>
                    <g id="XMLID_198_-Clipped">
                        <mask id="mask-8" fill="white">
                            <use xlink:href="#path-7"></use>
                        </mask>
                        <g id="inside_1_"></g>
                        <circle id="XMLID_198_" stroke="#1485E0" stroke-width="2.0298" mask="url(#mask-8)" cx="45" cy="44.1" r="42.6"></circle>
                    </g>
                </g>
            </g>
        </g>
    </g>
</svg>