<svg height="24" viewBox="0 0 24 24" width="24" xmlns="http://www.w3.org/2000/svg"><g fill="#cac9ca" fill-rule="evenodd" stroke-width=".28178157"><path d="m23.96625370257 19.79882774257v-15.357095565c0-.31041057751-.25316383375-.56356314-.56356314-.56356314h-22.71215669623c-.31041057751 0-.56356314.25316383375-.56356314.56356314v15.357095565c0 .31041057751.25316383375.56356314.56356314.56356314h22.71215669623c.30931162939 0 .56356314-.25426278187.56356314-.56356314zm-1.12712628-.56356314h-21.58502900732v-14.229969285h21.58502900732z"/><path d="m6.74883621243 11.00752454014c1.35277696126 0 2.47990324126-1.09849727249 2.47990324126-2.47990324126 0-1.38027884249-1.09849727249-2.47990324126-2.47990324126-2.47990324126-1.38027884249 0-2.47990324126 1.09849727249-2.47990324126 2.47990324126 0 1.38027884249 1.12712628 2.47990324126 2.47990324126 2.47990324126zm0-3.804051195c.73308293251 0 1.35277696126.59219214751 1.35277696126 1.35277696126s-.59219214751 1.35277696126-1.35277696126 1.35277696126-1.35277696126-.59219214751-1.35277696126-1.35277696126c0-.76168376187.62079297687-1.35277696126 1.35277696126-1.35277696126z"/><path d="m3.93102051243 18.13547113486h5.6356314c.31041057751 0 .56356314-.25316383375.56356314-.56356314v-3.35263711986c0-1.23938805749-1.01486450251-2.25425256-2.25425256-2.25425256h-2.25425256c-1.23938805749 0-2.25425256 1.01486450251-2.25425256 2.25425256v3.35263711986c0 .31041057751.25426278187.56356314.56356314.56356314zm.56356314-3.91620025986c0-.61969402874.50743225126-1.12712628 1.12712628-1.12712628h2.25425256c.61969402874 0 1.12712628.50743225126 1.12712628 1.12712628v2.78918669249h-4.50850512z"/><path d="m13.99034077986 8.24578337257h6.81883221243c.31041057751 0 .56356314-.25316383375.56356314-.56356314 0-.31041057751-.25316383375-.56356314-.56356314-.56356314h-6.81883221243c-.31041057751 0-.56356314.25316383375-.56356314.56356314 0 .30931162939.25426278187.56356314.56356314.56356314z"/><path d="m13.99034077986 11.20448985757h6.81883221243c.31041057751 0 .56356314-.25316383375.56356314-.56356314 0-.31041057751-.25316383375-.56356314-.56356314-.56356314h-6.81883221243c-.31041057751 0-.56356314.25316383375-.56356314.56356314 0 .30931162939.25426278187.56356314.56356314.56356314z"/><path d="m13.99034077986 14.16319634257h6.81883221243c.31041057751 0 .56356314-.25316383375.56356314-.56356314 0-.31041057751-.25316383375-.56356314-.56356314-.56356314h-6.81883221243c-.31041057751 0-.56356314.25316383375-.56356314.56356314 0 .30931162939.25426278187.56356314.56356314.56356314z"/><path d="m13.99034077986 17.12190282757h6.81883221243c.31041057751 0 .56356314-.25316383375.56356314-.56356314 0-.31041057751-.25316383375-.56356314-.56356314-.56356314h-6.81883221243c-.31041057751 0-.56356314.25316383375-.56356314.56356314 0 .30931162939.25426278187.56356314.56356314.56356314z"/></g></svg>