<svg height="24" viewBox="0 0 24 24" width="24" xmlns="http://www.w3.org/2000/svg"><path d="m12.33845157633 4.33115539673h.01775999988c1.15914916197 0 2.10128266434-.93340150242 2.10128266434-2.08083169837-.00000313559-1.14742956883-.94213663796-2.08083169837-2.10128579993-2.08083169837h-.01775999988c-1.15914853485 0-2.10128266434.93340212954-2.10128266434 2.08083169837 0 1.14645439934.94213412948 2.08083169837 2.10128266434 2.08083169837zm-.0226891524-3.54294877363c.01676915243.00100338982.03551372858.00100338982.05228288102.00100338982.80795457103.00684186436 1.46203116001.65874862285 1.46203116001 1.4601905668 0 .80046614735-.65405150423 1.45335936345-1.46104595662 1.46018993968-.0147999999-.00100338982-.02959372862-.00100338982-.04439372853 0-.80696936765-.00684186436-1.46203116001-.65874799573-1.46203116001-1.46018993968.00100338982-.80537021511.66195633469-1.4601905668 1.45314175329-1.4611663634l.00001254237-.00000250847zm2.52851978021 8.4142533522c-.17362782938 0-.31371672678.13878762622-.31371672678.30983235392v12.93951950929c0 .70663853779-.68561940233.92654646857-.93521387529.92654646857-.34922418418 0-.93422867191-.12021738905-.93422867191-.92654646857v-6.1055819265c0-.17201801583-.14008638892-.30983298104-.3127315234-.30983298104s-.3127315234.13878825334-.3127315234.30983298104v6.10658280785c0 .80634601172-.585989064.92654584145-.93521387529.92654584145-.24958882889 0-.93521387529-.21991043925-.93521387529-.92654584145v-12.93951950929c0-.17103971075-.14008638892-.30983298104-.31371609966-.30983298104-.17263949041 0-.3127315234.13878825334-.3127315234.30983298104v12.93951950929c0 1.00964031548.9066003331 1.54718760013 1.56166149834 1.54718760013.44590079372 0 .93816885832-.15638018543 1.24794539868-.54537874223.31076237087.3889985568.80303043547.54537874223 1.2479460258.54537874223.65506116524 0 1.56166149834-.53754728465 1.56166149834-1.54718760013v-12.93951950929c0-.17103971075-.14107159231-.31080877764-.31371609966-.31080877764v-.00002445763zm4.72241156259 2.11896302015-2.51068954304-1.13179173842-.8089391473-2.62143179656c-.27820801514-1.38297595713-1.52218814267-2.38676149299-2.95659033675-2.38676149299h-1.86648819128c-1.43538677035 0-2.67828135551 1.00376045112-2.94977104866 2.35743742539l-.8148741981 2.64094772863-2.53129791578 1.14157478921c-.53666681008.24141120182-.76653652045.8493318589-.52186743729 1.38297595713.24366945605.53169250503.8562928758.75843163915 1.39689861806.51703047122l2.70808203328-1.22954824626c.15685554136-.07134916903.22591259175-.25606320173.15389867697-.41146759055-.07201705038-.15540188035-.25747359155-.22381864262-.41531684476-.15247198206l-2.70606145702 1.22857244966c-.22690030361.10164715188-.46565001393.01368372872-.56725013191-.20915849017-.10259849086-.22479757481-.01380915245-.46133418345.21111572744-.56199299635l2.65959259292-1.19924838205c.08188099947-.03713796586.14304576178-.1075119654.16968262602-.1915640496l.86222729949-2.80608562587c.21999259179-1.09368487426 1.20551643286-1.88732044539 2.34297167972-1.88732044539h1.86648819128c1.13745524686 0 2.12297657945.79461136773 2.35087651017 1.91762093671l.85826265545 2.78556818532c.02564915238.0850310164.08780099943.15540188035.1696819989.19156467672l2.63989416932 1.19044050075c.2249248799.1006688468.3127315234.33720545544.21012801559.56199236924-.10062557562.22284096466-.3403598622.31080877764-.56626492853.20915911729l-2.66944149116-1.21195819553c-.15883033795-.07134979615-.34331484523-.00294745761-.41531684476.15344777867-.07201642326.15540188035-.00294745761.34013284525.15389867697.41146696343l2.67146206742 1.21293461925c.14600388041.06548435551.29694694723.09676064344.44491559033.09676064344.39854769233 0 .77343106278-.2257727443.95198302772-.61378609771.24465654079-.53657148804.01578457617-1.14450217902-.52186681017-1.38495263508l-.00002320339.00004515254z" fill="#ccc" fill-rule="evenodd"/></svg>