
<svg width="15px" height="15px" viewBox="0 0 15 15" version="1.1" xmlns="http://www.w3.org/2000/svg" xmlns:xlink="http://www.w3.org/1999/xlink">
    <!-- Generator: Sketch 50.2 (55047) - http://www.bohemiancoding.com/sketch -->
    <desc>Created with Sketch.</desc>
    <defs></defs>
    <g id="Wireframes---Desktop" stroke="none" stroke-width="1" fill="none" fill-rule="evenodd">
        <g id="Dash---My-Vault---My-Files" transform="translate(-146.000000, -209.000000)" fill="#01AA50">
            <g id="Category-Display" transform="translate(146.000000, 146.000000)">
                <g id="My-Files" transform="translate(0.000000, 32.000000)">
                    <path d="M14.2105263,31 L0.789473684,31 C0.354631579,31 0,31.3546474 0,31.7894737 L0,45.2105263 C0,45.6453684 0.354647368,46 0.789473684,46 L14.2105263,46 C14.6453684,46 15,45.6453526 15,45.2105263 L15,31.7894737 C15,31.3546316 14.6453526,31 14.2105263,31 Z M0.789473684,45.2105263 L0.789473684,31.7894737 L14.2105263,31.7894737 L14.2120697,45.2105263 L0.789473684,45.2105263 Z M11.8421053,38.1052632 L3.15789474,38.1052632 C2.93893816,38.1052632 2.76315789,38.2810434 2.76315789,38.5 C2.76315789,38.7189566 2.93893816,38.8947368 3.15789474,38.8947368 L11.8421053,38.8947368 C12.0610618,38.8947368 12.2368421,38.7189566 12.2368421,38.5 C12.2368421,38.2810434 12.0610618,38.1052632 11.8421053,38.1052632 Z" id="Page-1"></path>
                </g>
            </g>
        </g>
    </g>
</svg>