<svg height="24" viewBox="0 0 24 24" width="24" xmlns="http://www.w3.org/2000/svg"><path d="m14.210526 31h-13.42105232c-.4348421 0-.78947368.354647-.78947368.789474v13.421052c0 .434842.35464737.789474.78947368.789474h13.42105232c.434842 0 .789474-.354647.789474-.789474v-13.421052c0-.434842-.354647-.789474-.789474-.789474zm-13.42105232 14.210526v-13.421052h13.42105232l.0015 13.421052zm11.05263132-7.105263h-8.6842103c-.2189565 0-.3947368.17578-.3947368.394737s.1757803.394737.3947368.394737h8.6842103c.218957 0 .394737-.17578.394737-.394737s-.17578-.394737-.394737-.394737z" fill="#01aa50" fill-rule="evenodd" transform="matrix(1.5931302 0 0 1.5933096 .128471 -49.3281346)"/></svg>