<svg height="24" viewBox="0 0 24 24" width="24" xmlns="http://www.w3.org/2000/svg"><path d="m14.210526 452h-13.42105232c-.4348421 0-.78947368.35465-.78947368.78947v13.42106c0 .43484.35464737.78947.78947368.78947h13.42105232c.434842 0 .789474-.35465.789474-.78947v-13.42106c0-.43484-.354647-.78947-.789474-.78947zm-13.42105232 14.21053v-13.42106h13.42105232l.0015 13.42106zm11.05263132-7.10527h-3.9473682v-3.94737c0-.21895-.1757802-.39473-.3947368-.39473s-.3947368.17578-.3947368.39473v3.94737h-3.9473685c-.2189565 0-.3947368.17578-.3947368.39474s.1757803.39474.3947368.39474h3.9473685v3.94736c0 .21896.1757802.39474.3947368.39474s.3947368-.17578.3947368-.39474v-3.94736h3.9473682c.218957 0 .394737-.17578.394737-.39474s-.17578-.39474-.394737-.39474z" fill-rule="evenodd" transform="matrix(1.5932203 0 0 1.5932203 .127119 -720.0338806)"/></svg>