<svg height="24" viewBox="0 0 24 24" width="24" xmlns="http://www.w3.org/2000/svg"><g fill-rule="evenodd" opacity=".5" transform="matrix(1.1562868 0 0 1.1562868 .088973 .208128)"><path d="m18.904154 8.4835385c0 .8744077-1.3116.8744077-1.3116 0 0-.8753077 1.3116-.8753077 1.3116 0"/><path d="m18.904154 10.190769c0 .874408-1.3116.874408-1.3116 0 0-.8744075 1.3116-.8744075 1.3116 0"/><path d="m18.713077 5.8061538h-2.179685l-.000902-5.59246149h-12.2965385v5.59246149h-2.1796846c-1.13402305 0-2.05619998.922177-2.05619998 2.0562v6.3461542c0 1.134023.92217693 2.0562 2.05619998 2.0562h1.1862923c.2073323 0 .3759-.16857.3759-.3759v-1.108777h.6183923v5.312308h12.2965385v-5.310462h.618392v1.108777c0 .207332.16857.3759.3759.3759h1.186293c1.134023 0 2.0562-.922177 2.0562-2.0562l-.000903-6.3480002c0-1.134023-.922177-2.0562-2.0562-2.0562zm-13.9758462-5.0921538h11.2959232l-.000903 5.0921538h-11.2950202zm11.2950002 18.879691h-11.2950002v-7.408152h11.2959232zm3.986077-5.385229c0 .720253-.585947 1.305277-1.305277 1.305277h-.811293v-1.108777c0-.207333-.168569-.375901-.3759-.375901h-.994292l.0009-2.587153h-12.2965383v2.589h-.9942923c-.2073323 0-.3759.16857-.3759.3759v1.108777h-.8112923c-.7202539 0-1.30527625-.585947-1.30527625-1.305277l.00090138-6.3480003c0-.7202539.58594637-1.3052769 1.30527717-1.3052769h16.6569226c.720254 0 1.305277.5859461 1.305277 1.3052769z"/></g></svg>