<?xml version="1.0" encoding="UTF-8"?>
<svg width="49px" height="49px" viewBox="0 0 49 49" version="1.1" xmlns="http://www.w3.org/2000/svg" xmlns:xlink="http://www.w3.org/1999/xlink">
    <!-- Generator: sketchtool 50.2 (55047) - http://www.bohemiancoding.com/sketch -->
    <title>944ADACE-8E44-456D-98F4-3E1E541465A8</title>
    <desc>Created with sketchtool.</desc>
    <defs>
        <filter x="-0.3%" y="-2.8%" width="100.5%" height="107.8%" filterUnits="objectBoundingBox" id="filter-1">
            <feOffset dx="0" dy="1" in="SourceAlpha" result="shadowOffsetOuter1"></feOffset>
            <feGaussianBlur stdDeviation="1" in="shadowOffsetOuter1" result="shadowBlurOuter1"></feGaussianBlur>
            <feColorMatrix values="0 0 0 0 0   0 0 0 0 0   0 0 0 0 0  0 0 0 0.1 0" type="matrix" in="shadowBlurOuter1" result="shadowMatrixOuter1"></feColorMatrix>
            <feMerge>
                <feMergeNode in="shadowMatrixOuter1"></feMergeNode>
                <feMergeNode in="SourceGraphic"></feMergeNode>
            </feMerge>
        </filter>
        <circle id="path-2" cx="22.5" cy="22.5" r="22.5"></circle>
    </defs>
    <g id="Wireframes---Desktop" stroke="none" stroke-width="1" fill="none" fill-rule="evenodd">
        <g id="Dash---SmartGuide---SmartGuide-Templates" transform="translate(-955.000000, -76.000000)">
            <g id="Header" transform="translate(0.000000, 55.000000)">
                <g filter="url(#filter-1)" id="profile_placeholder_icon">
                    <g transform="translate(957.000000, 22.000000)">
                        <mask id="mask-3" fill="white">
                            <use xlink:href="#path-2"></use>
                        </mask>
                        <use id="Mask" fill="#EFEFEF" xlink:href="#path-2"></use>
                        <path d="M28.5314545,34.0833597 C26.7225969,33.1120082 27.6880927,31.2921799 28.5314545,30.4437032 C29.616769,29.3518062 30.9440363,25.5916042 30.9440363,25.5916042 C33.1146654,24.6202527 33.3566182,23.0438446 33.5962557,21.9519477 C34.5617515,18.7968022 32.1491696,18.3122911 32.1491696,18.3122911 C32.1491696,18.3122911 34.0778459,13.0962265 32.5109411,9.09260431 C30.4601308,3.87653971 22.139386,1.93383663 20.6922999,6.78826496 C10.8046504,4.60219988 12.8531454,18.3099617 12.8531454,18.3099617 C12.8531454,18.3099617 10.4405635,18.7944903 11.4060593,21.9496183 C11.6479947,23.0415153 11.8876669,24.6179233 14.0582786,25.5892748 C14.0582786,25.5892748 15.385546,29.3494768 16.4708605,30.4413738 C17.3142223,31.2898505 18.2797181,33.1096788 16.4708605,34.0810303 C12.8531454,36.021404 2,36.5082445 2,45 L43,45 C43.0022629,36.5082445 32.1491696,36.0237334 28.5314545,34.0833597 Z" id="Page-1" fill="#000000" opacity="0.103430707" mask="url(#mask-3)"></path>
                    </g>
                </g>
            </g>
        </g>
    </g>
</svg>