<svg height="24" viewBox="0 0 24 24" width="24" xmlns="http://www.w3.org/2000/svg"><path d="m112.09751 118.94906c-.0159.00093-.0309.004-.0449.007-.0459.0103-.088.0337-.11984.0674l-11.52699 11.52699c-.0384.0384-.0618.0889-.0674.14231l-.33703 3.04844c-.0075.0712.0178.14231.0683.19287.0515.0515.12171.0768.1938.0693l3.04845-.33704c.0534-.006.10392-.029.1423-.0674l11.527-11.52699c.0918-.0936.0918-.24341 0-.33703l-2.71122-2.71122c-.0449-.0468-.10767-.074-.17227-.0749zm.007.58421 2.3668 2.3668-1.01862 1.01863-2.3668-2.36681zm-1.35566 1.35566 2.36681 2.3668-9.93914 9.94657-2.67383.29959.30707-2.6815z" fill-rule="evenodd" opacity=".5" transform="matrix(1.58539 0 0 1.58539 -158.539031 -188.444992)"/></svg>