<svg height="24" viewBox="0 0 24 24" width="24" xmlns="http://www.w3.org/2000/svg"><path d="m113.84867 100h-3.87872c-.13375 0-.24249-.10875-.24249-.242496v-7.27248c0-.13375.10875-.242496.24249-.242496h3.87872c.13375 0 .2425.10875.2425.242496v7.27248c0 .13375-.10875.242496-.2425.242496zm-.24249-.484992v-6.78752h-3.39376v6.78752zm-8.48496.484992h-3.87872c-.13375 0-.2425-.10875-.2425-.242496v-4.84816c0-.134374.10875-.242496.2425-.242496h3.87872c.13375 0 .24249.108125.24249.242496v4.84816c0 .13375-.10875.242496-.24249.242496zm-.2425-.484992v-4.36368h-3.39376v4.36368zm-1.93936-7.13056v-3.77808c0-2.54368 2.06256-4.60624 4.60624-4.60624s4.60624 2.06256 4.60624 4.60624v1.353744l.79813-.798128c.0944-.09437.24813-.09437.34249 0 .095.095.095.248128 0 .34312l-1.21187 1.211872c-.0944.09437-.24813.09437-.34249 0l-1.2125-1.211872c-.0944-.095-.0944-.248128 0-.34312.095-.09437.24813-.09437.34312 0l.79813.798128v-1.353744c0-2.27632-1.84496-4.12128-4.12128-4.12128s-4.12128 1.84496-4.12128 4.12128v3.77808l.79813-.798128c.095-.095.24812-.095.34312 0 .0944.09437.0944.248128 0 .342496l-1.2125 1.212496c-.0944.09437-.24813.09437-.3425 0l-1.21187-1.212496c-.095-.09437-.095-.248128 0-.342496.0944-.095.24813-.095.3425 0z" fill-rule="evenodd" opacity=".5" transform="matrix(1.4957667 0 0 1.4957667 -148.7673517 -125.5766698)"/></svg>