<?xml version="1.0" encoding="UTF-8"?>
<svg width="38px" height="32px" viewBox="0 0 38 32" version="1.1" xmlns="http://www.w3.org/2000/svg" xmlns:xlink="http://www.w3.org/1999/xlink">
    <!-- Generator: sketchtool 50.2 (55047) - http://www.bohemiancoding.com/sketch -->
    <title>BBC626AA-44AC-4571-900B-B1A135542C99</title>
    <desc>Created with sketchtool.</desc>
    <defs></defs>
    <g id="Wireframes---Desktop" stroke="none" stroke-width="1" fill="none" fill-rule="evenodd" opacity="1">
        <g id="Dash---SmartGuide---SmartGuide-Templates" transform="translate(-31.000000, -545.000000)" fill="#FFFFFF">
            <g id="Category-Selection" transform="translate(-1.000000, 145.000000)">
                <g id="Contacts">
                    <g transform="translate(1.000000, 287.000000)">
                        <path d="M43.8,113 C43.2928457,113 42.8857143,113.407141 42.8857143,113.914286 L42.8857143,116.657143 L56.6,116.657143 L56.6,113.914286 C56.6,113.407131 56.1928594,113 55.6857143,113 L43.8,113 Z M35.1142857,117.571429 C32.8357029,117.571429 31,119.407131 31,121.685714 L31,126.171429 C35.1856914,128.439269 40.8500571,129.971429 47.1856,130.299977 C47.5820297,129.271406 48.5749029,128.542811 49.7427657,128.542811 C50.9106286,128.542811 51.9034971,129.271406 52.2999314,130.299977 C58.6354743,129.971406 64.2999314,128.439269 68.4855314,126.171429 L68.4855314,121.685714 C68.4855314,119.407131 66.6498286,117.571429 64.3712457,117.571429 L35.1142857,117.571429 Z M31,128.228343 L31,140.885714 C31,143.164297 32.8357029,145 35.1142857,145 L64.3714286,145 C66.6500114,145 68.4857143,143.164297 68.4857143,140.885714 L68.4857143,128.228343 C64.1053714,130.408686 58.5158857,131.815863 52.3430857,132.12832 C51.9859429,133.230126 50.9627429,134.028297 49.7430857,134.028297 C48.5234286,134.028297 47.5002514,133.23008 47.1430857,132.12832 C40.9698286,131.817605 35.3808,130.408686 31.0004567,128.228343 L31,128.228343 Z" id="search_attorney_icon"></path>
                    </g>
                </g>
            </g>
        </g>
    </g>
</svg>