<svg height="24" viewBox="0 0 24 24" width="24" xmlns="http://www.w3.org/2000/svg"><g fill-rule="evenodd" opacity=".5" transform="matrix(1.1949143 0 0 1.1949143 -.212781 .101749)"><path d="m20.213556 6.7022222c-.0052-.022569-.01302-.045138-.02344-.065973l-.013887-.0269092-.036458-.04948-.011284-.0147578-6.452223-6.45044442c-.020833-.02083334-.043402-.03645778-.068575-.05034667l-.018229-.00954889c-.043402-.0217-.092013-.03472222-.141493-.03472222h-6.3360003c-1.6649334 0-3.0191111 1.3541778-3.0191111 3.0191111 0 .1779511.1440977.3229111.3229111.3229111.1779511 0 .3229111-.1440978.3229111-.3229111 0-1.3090222 1.0651111-2.37422221 2.3742222-2.37422221h6.013111v3.54689111c0 1.6006889 1.302089 2.9035556 2.903556 2.9035556h3.548666v9.8853334c0 1.309022-1.065111 2.374221-2.374222 2.374221h-10.091111c-1.3090222 0-2.3742222-1.06511-2.3742222-2.374221 0-.177951-.1440978-.322911-.3229111-.322911-.1779511 0-.3229111.144098-.3229111.322911 0 1.664933 1.3550444 3.01911 3.02 3.01911h10.0902224c1.664933 0 3.019111-1.354177 3.019111-3.01911v-10.2066668c0-.020833-.0026-.040798-.0061-.060764zm-6.442667-2.5104444v-3.0902222l5.348889 5.3488888h-3.091111c-1.2448 0-2.257778-1.0130222-2.257778-2.2586666z"/><path d="m4.2924444 6.2508889c-.1258688-.1258689-.3298666-.1258689-.4566 0l-3.51999996 3.52c-.0303822.030382-.05382.065973-.0703133.1059022l-.00173625.0052089c-.0130209.035591-.0217013.074653-.0217013.11632s.00868.080729.0225689.117187l.001736.0052c.0164931.03993.0399311.07552.0703133.105902l3.51999911 3.52c.063369.06337.1458333.09462.2282889.09462.082464 0 .1649311-.03125.2282889-.09462.1258689-.125869.1258689-.329867 0-.4566l-2.9695545-2.968658h7.9262214c.1779511 0 .3229111-.144098.3229111-.322911 0-.1779511-.1440978-.3229111-.3229111-.3229111h-7.9262214l2.9686658-2.9686667c.1267356-.1258689.1267356-.3298666 0-.4557333z"/></g></svg>