<?xml version="1.0" encoding="UTF-8" standalone="no"?>
<svg
   xmlns:dc="http://purl.org/dc/elements/1.1/"
   xmlns:cc="http://creativecommons.org/ns#"
   xmlns:rdf="http://www.w3.org/1999/02/22-rdf-syntax-ns#"
   xmlns:svg="http://www.w3.org/2000/svg"
   xmlns="http://www.w3.org/2000/svg"
   xmlns:sodipodi="http://sodipodi.sourceforge.net/DTD/sodipodi-0.dtd"
   xmlns:inkscape="http://www.inkscape.org/namespaces/inkscape"
   width="24"
   height="24"
   viewBox="0 0 24 24"
   version="1.1"
   id="svg74"
   sodipodi:docname="smartguide_templates_icon.svg"
   inkscape:version="0.92.3 (2405546, 2018-03-11)">
  <metadata
     id="metadata78">
    <rdf:RDF>
      <cc:Work
         rdf:about="">
        <dc:format>image/svg+xml</dc:format>
        <dc:type
           rdf:resource="http://purl.org/dc/dcmitype/StillImage" />
        <dc:title>D0BE3361-2894-409E-B86D-C04D33CA91A9</dc:title>
      </cc:Work>
    </rdf:RDF>
  </metadata>
  <sodipodi:namedview
     pagecolor="#ffffff"
     bordercolor="#666666"
     borderopacity="1"
     objecttolerance="10"
     gridtolerance="10"
     guidetolerance="10"
     inkscape:pageopacity="0"
     inkscape:pageshadow="2"
     inkscape:window-width="1484"
     inkscape:window-height="845"
     id="namedview76"
     showgrid="false"
     inkscape:zoom="13.111111"
     inkscape:cx="9"
     inkscape:cy="9"
     inkscape:window-x="304"
     inkscape:window-y="63"
     inkscape:window-maximized="0"
     inkscape:current-layer="Wireframes---Desktop" />
  <!-- Generator: sketchtool 50.2 (55047) - http://www.bohemiancoding.com/sketch -->
  <title
     id="title61">D0BE3361-2894-409E-B86D-C04D33CA91A9</title>
  <desc
     id="desc63">Created with sketchtool.</desc>
  <defs
     id="defs65" />
  <g
     id="Wireframes---Desktop"
     style="fill:none;fill-rule:evenodd;stroke:none;stroke-width:1"
     transform="translate(0,6)">
    <g
       id="Dash---SmartGuide---SmartGuide-Templates"
       transform="matrix(1.1222166,0,0,1.1222166,-161.95863,-319.35155)"
       style="fill:#414141;fill-opacity:1">
      <g
         id="Category-Display"
         transform="translate(141,146)"
         style="fill:#414141;fill-opacity:1">
        <g
           id="green-cabinet-icon"
           transform="translate(5,135)"
           style="fill:#414141;fill-opacity:1">
          <path
             d="M 17.166653,0 H 1.0120992 C 0.55263582,0 0.17809324,0.37454257 0.17809324,0.83400594 V 16.98856 c 0,0.459463 0.37454258,0.833311 0.83400596,0.833311 H 17.166653 c 0.459464,0 0.833311,-0.373848 0.833311,-0.833311 V 0.83400594 C 17.999964,0.37454257 17.626117,0 17.166653,0 Z m 0.199105,17.187505 H 0.81306535 V 9.228297 H 17.365758 Z m 0,-8.5934852 H 0.81306535 V 0.63481188 H 17.365758 Z"
             id="Fill-1"
             style="fill:#414141;fill-opacity:1"
             inkscape:connector-curvature="0" />
          <path
             d="M 7.5414653,5.7446733 H 10.638 c 0.459463,0 0.833311,-0.3745426 0.833311,-0.8333109 V 4.3941208 c 0,-0.1740404 -0.142713,-0.3167465 -0.316747,-0.3167465 -0.174737,0 -0.316746,0.1427132 -0.316746,0.3167465 V 5.1097723 L 7.3424317,5.1104691 V 4.3969028 c 0,-0.1761291 -0.1427133,-0.3188495 -0.3181545,-0.3188495 -0.1747372,0 -0.3167465,0.1427132 -0.3167465,0.3167465 v 0.5165465 c -6.968e-4,0.4587683 0.3738475,0.8333109 0.8340059,0.8333109 z"
             id="Fill-2"
             style="fill:#414141;fill-opacity:1"
             inkscape:connector-curvature="0" />
          <path
             d="M 7.5414653,14.338871 H 10.638 c 0.459463,0 0.833311,-0.374542 0.833311,-0.834006 v -0.515851 c 0,-0.175432 -0.142713,-0.316747 -0.316747,-0.316747 -0.174737,0 -0.316746,0.142019 -0.316746,0.316747 v 0.714956 l -3.4953863,-6.96e-4 v -0.712175 c 0,-0.177521 -0.1427133,-0.319545 -0.3181545,-0.319545 -0.1747372,0 -0.3167465,0.142019 -0.3167465,0.316747 v 0.515852 c -6.968e-4,0.460158 0.3738475,0.834701 0.8340059,0.834701 z"
             id="Fill-3"
             style="fill:#414141;fill-opacity:1"
             inkscape:connector-curvature="0" />
        </g>
      </g>
    </g>
  </g>
</svg>
