<?xml version="1.0" encoding="UTF-8" standalone="no"?>
<svg
   xmlns:dc="http://purl.org/dc/elements/1.1/"
   xmlns:cc="http://creativecommons.org/ns#"
   xmlns:rdf="http://www.w3.org/1999/02/22-rdf-syntax-ns#"
   xmlns:svg="http://www.w3.org/2000/svg"
   xmlns="http://www.w3.org/2000/svg"
   xmlns:sodipodi="http://sodipodi.sourceforge.net/DTD/sodipodi-0.dtd"
   xmlns:inkscape="http://www.inkscape.org/namespaces/inkscape"
   width="24"
   height="24"
   viewBox="0 0 24 24"
   version="1.1"
   id="svg36"
   sodipodi:docname="smatrguide_setup_icon.svg"
   inkscape:version="0.92.3 (2405546, 2018-03-11)">
  <metadata
     id="metadata40">
    <rdf:RDF>
      <cc:Work
         rdf:about="">
        <dc:format>image/svg+xml</dc:format>
        <dc:type
           rdf:resource="http://purl.org/dc/dcmitype/StillImage" />
        <dc:title>83FF8CB9-DD7C-403E-A2F4-B450E611A487</dc:title>
      </cc:Work>
    </rdf:RDF>
  </metadata>
  <sodipodi:namedview
     pagecolor="#ffffff"
     bordercolor="#666666"
     borderopacity="1"
     objecttolerance="10"
     gridtolerance="10"
     guidetolerance="10"
     inkscape:pageopacity="0"
     inkscape:pageshadow="2"
     inkscape:window-width="1027"
     inkscape:window-height="797"
     id="namedview38"
     showgrid="false"
     inkscape:zoom="18.409091"
     inkscape:cx="6.4556868"
     inkscape:cy="12.756145"
     inkscape:window-x="713"
     inkscape:window-y="102"
     inkscape:window-maximized="0"
     inkscape:current-layer="svg36" />
  <!-- Generator: sketchtool 50.2 (55047) - http://www.bohemiancoding.com/sketch -->
  <title
     id="title26">83FF8CB9-DD7C-403E-A2F4-B450E611A487</title>
  <desc
     id="desc28">Created with sketchtool.</desc>
  <defs
     id="defs30" />
  <g
     id="Wireframes---Desktop"
     style="fill:none;fill-rule:evenodd;stroke:none;stroke-width:1"
     transform="matrix(1.0185095,0,0,1.0185368,1.0320987,0.61441137)">
    <g
       id="Dash---SmartGuide---SmartGuide-Templates"
       transform="translate(-141,-207)"
       style="fill:#414142">
      <g
         id="Category-Display"
         transform="translate(141,146)">
        <path
           d="m 13.179504,65.15493 c 0.07031,0.06937 0.162187,0.105 0.254064,0.105 0.09187,0 0.183749,-0.03563 0.254064,-0.105 0.140626,-0.139688 0.140626,-0.366552 0,-0.506256 l -3.1548,-3.14352 c -0.139687,-0.139688 -0.367488,-0.139688 -0.507192,0 -0.1406254,0.139687 -0.1406254,0.366552 0,0.506256 z m 4.90776,0.176251 c 0.09094,0 0.182813,-0.03563 0.253128,-0.105 l 3.1548,-3.14352 c 0.139687,-0.140626 0.139687,-0.366552 0,-0.506256 -0.140625,-0.139687 -0.367488,-0.139687 -0.508128,0 l -3.15384,3.14352 c -0.140625,0.139687 -0.140625,0.366552 0,0.506256 0.06937,0.06937 0.162187,0.105 0.254064,0.105 z m -1.995,-0.198749 c -0.07594,-0.07594 -0.175313,-0.113438 -0.275616,-0.113438 -0.09937,0 -0.199687,0.0375 -0.275616,0.113438 l -1.903128,1.896552 c -0.151874,0.151874 -0.151874,0.398448 0,0.55032 l 1.903128,1.895616 c 0.07594,0.07594 0.176251,0.114374 0.275616,0.114374 0.100313,0 0.199687,-0.03844 0.275616,-0.114374 l 1.903128,-1.895616 c 0.151875,-0.151874 0.151875,-0.398448 0,-0.55032 z m -0.275616,3.60552 -1.439064,-1.434384 1.439064,-1.433448 1.439064,1.433448 z m 0,-4.97904 c 0.198749,0 0.359064,-0.160313 0.359064,-0.358128 v -1.571256 c 0,-0.197813 -0.160313,-0.358128 -0.359064,-0.358128 -0.197813,0 -0.359064,0.160313 -0.359064,0.358128 v 1.571256 c 0,0.197813 0.161251,0.358128 0.359064,0.358128 z m 5.42448,3.18648 h -1.576872 c -0.198749,0 -0.359064,0.160313 -0.359064,0.358128 0,0.197813 0.160313,0.358128 0.359064,0.358128 h 1.576872 c 0.198749,0 0.359064,-0.160313 0.359064,-0.358128 0,-0.197813 -0.160313,-0.358128 -0.359064,-0.358128 z m -2.90064,2.340936 c -0.139687,-0.139687 -0.367488,-0.139687 -0.507192,0 -0.140625,0.139687 -0.140625,0.366552 0,0.506256 l 3.15384,3.14352 c 0.07031,0.07031 0.162187,0.105 0.254064,0.105 0.09188,0 0.183749,-0.03469 0.254064,-0.105 0.139687,-0.139687 0.139687,-0.365616 0,-0.50532 z m -8.06064,-1.62468 h 1.576872 c 0.197813,0 0.359064,-0.160313 0.359064,-0.358128 0,-0.197813 -0.161251,-0.358128 -0.359064,-0.358128 h -1.576872 c -0.198749,0 -0.3590638,0.160313 -0.3590638,0.358128 0,0.197813 0.1603128,0.358128 0.3590638,0.358128 z m 5.5368,3.37968 c -0.197813,0 -0.359064,0.160313 -0.359064,0.357192 v 1.572192 c 0,0.197813 0.161251,0.358128 0.359064,0.358128 0.198749,0 0.359064,-0.160313 0.359064,-0.358128 V 71.39852 c 0,-0.196874 -0.160313,-0.357192 -0.359064,-0.357192 z m -3.61224,-1.749384 C 12.086283,69.174757 11.9316,69.115695 11.77692,69.115695 c -0.153749,0 -0.308448,0.05906 -0.426552,0.176249 l -10.85256,10.8168 c -0.663744,0.661872 -0.663744,1.733448 0,2.39532 C 0.82968,82.835 1.2637442,83 1.6987442,83 c 0.435,0 0.87,-0.165 1.201872,-0.495936 l 10.8525598,-10.8168 c 0.236249,-0.235313 0.236249,-0.615936 0,-0.851256 z m -9.8119198,12.70584 c -0.1846872,0.184688 -0.431256,0.286872 -0.693744,0.286872 -0.261552,0 -0.5081275,-0.102187 -0.6937435,-0.286872 -0.38155198,-0.381552 -0.38155198,-1.001256 0,-1.382808 l 10.7719193,-10.73616 1.387488,1.382808 z"
           id="black-cabinet-icon"
           inkscape:connector-curvature="0" />
      </g>
    </g>
  </g>
</svg>
