
<svg width="10px" height="15px" viewBox="0 0 10 15" version="1.1" xmlns="http://www.w3.org/2000/svg" xmlns:xlink="http://www.w3.org/1999/xlink">
    <!-- Generator: Sketch 50.2 (55047) - http://www.bohemiancoding.com/sketch -->
    <desc>Created with Sketch.</desc>
    <defs></defs>
    <g id="Wireframes---Desktop" stroke="none" stroke-width="1" fill="none" fill-rule="evenodd" opacity="0.3">
        <g id="Dash---My-Files---Estate-Planning---Home-Management-(list---selected)" transform="translate(-912.000000, -329.000000)" fill="#000000">
            <g id="Group-4" transform="translate(751.000000, 237.000000)">
                <g id="Dropdown">
                    <g id="Page-1" transform="translate(161.000000, 92.000000)">
                        <polygon id="Fill-1" points="5 2.57107143 4.99581429 2.56688571 0.945814286 6.61617143 1.84495714 7.51601071 4.99995714 4.361725 8.15424286 7.51601071 9.05408214 6.61617143 5.00408214 2.56688571"></polygon>
                        <polygon id="Fill-2" points="5 6.28357143 4.99581429 6.27938571 0.945814286 10.3286714 1.84495714 11.2285107 4.99995714 8.074225 8.15424286 11.2285107 9.05408214 10.3286714 5.00408214 6.27938571"></polygon>
                        <polygon id="Fill-3" points="5 9.99589286 4.99581429 9.99101071 0.945814286 14.0410107 1.84495714 14.9408498 4.99995714 11.7865643 8.15424286 14.9408498 9.05408214 14.0410107 5.00408214 9.99101071"></polygon>
                        <polygon id="Fill-4" points="9.89535714 0.0662678571 9.89535714 0.0599892857 0.0969642857 0.0592928571 0.0969642857 1.33231071 9.90303571 1.33231071 9.90303571 0.066275"></polygon>
                    </g>
                </g>
            </g>
        </g>
    </g>
</svg>