
<svg width="24px" height="17px" viewBox="0 0 24 17" version="1.1" xmlns="http://www.w3.org/2000/svg" xmlns:xlink="http://www.w3.org/1999/xlink">
    <!-- Generator: Sketch 50.2 (55047) - http://www.bohemiancoding.com/sketch -->
    <desc>Created with Sketch.</desc>
    <defs></defs>
    <g id="Wireframes---Desktop" stroke="none" stroke-width="1" fill="none" fill-rule="evenodd" opacity="0.3">
        <g id="Dash---My-Files---Estate-Planning---Home-Management-(list---selected)" transform="translate(-903.000000, -288.000000)" fill="#000000">
            <g id="Group-4" transform="translate(751.000000, 237.000000)">
                <g id="Page-1" transform="translate(152.000000, 51.000000)">
                    <path d="M0.690116272,1.25849603 L4.58485647,1.25849603 C4.89002588,1.25849603 5.13694949,1.01156415 5.13694949,0.706403016 C5.13694949,0.402310182 4.8900176,0.154309999 4.58485647,0.154309999 L0.690116272,0.154309999 C0.384946857,0.154309999 0.138023254,0.402321224 0.138023254,0.706403016 C0.138023254,1.01157243 0.384955138,1.25849603 0.690116272,1.25849603 Z" id="Fill-1"></path>
                    <path d="M0.690116272,5.18442948 L9.33810131,5.18442948 C9.64327072,5.18442948 9.89019432,4.93641826 9.89019432,4.63233647 C9.89019432,4.32716705 9.64326244,4.08024345 9.33810131,4.08024345 L0.690116272,4.08024345 C0.384946857,4.08024345 0.138023254,4.32717533 0.138023254,4.63233647 C0.138023254,4.9364293 0.384955138,5.18442948 0.690116272,5.18442948 Z" id="Fill-2"></path>
                    <path d="M0.690116272,9.1095348 L14.0946587,9.1095348 C14.3998281,9.1095348 14.6467517,8.86260291 14.6467517,8.55744178 C14.6467517,8.25228064 14.3998198,8.00534876 14.0946587,8.00534876 L0.690116272,8.00534876 C0.384946857,8.00534876 0.138023254,8.25228064 0.138023254,8.55744178 C0.138023254,8.86260291 0.384955138,9.1095348 0.690116272,9.1095348 Z" id="Fill-3"></path>
                    <path d="M0.690116272,13.0346401 L18.8487317,13.0346401 C19.1528245,13.0346401 19.4008247,12.7877082 19.4008247,12.4825471 C19.4008247,12.1784543 19.1528135,11.9304541 18.8487317,11.9304541 L0.690116272,11.9304541 C0.384946857,11.9304541 0.138023254,12.1784653 0.138023254,12.4825471 C0.138023254,12.7877165 0.384955138,13.0346401 0.690116272,13.0346401 Z" id="Fill-4"></path>
                    <path d="M23.0498835,15.8563875 L0.690116272,15.8563875 C0.384946857,15.8563875 0.138023254,16.1033194 0.138023254,16.4084805 C0.138023254,16.7125734 0.384955138,16.9605736 0.690116272,16.9605736 L23.0498835,16.9605736 C23.3550529,16.9605736 23.6019765,16.7125623 23.6019765,16.4084805 C23.6019765,16.1033111 23.3550446,15.8563875 23.0498835,15.8563875 Z" id="Fill-5"></path>
                </g>
            </g>
        </g>
    </g>
</svg>