<?xml version="1.0" encoding="UTF-8"?>
<svg width="34px" height="36px" viewBox="0 0 34 36" version="1.1" xmlns="http://www.w3.org/2000/svg" xmlns:xlink="http://www.w3.org/1999/xlink">
    <!-- Generator: sketchtool 50.2 (55047) - http://www.bohemiancoding.com/sketch -->
    <title>99C25744-9C2B-4B36-A25B-F7FC8B16D75F</title>
    <desc>Created with sketchtool.</desc>
    <defs></defs>
    <g id="Wireframes---Desktop" stroke="none" stroke-width="1" fill="none" fill-rule="evenodd" opacity="1">
        <g id="Dash---SmartGuide---SmartGuide-Templates" transform="translate(-33.000000, -319.000000)" fill="#FFFFFF">
            <g id="Category-Selection" transform="translate(-1.000000, 145.000000)">
                <g id="My-Vault">
                    <g transform="translate(0.000000, 174.000000)">
                        <path d="M35.4459383,0.027027027 L65.7160449,0.027027027 C66.5104933,0.027027027 67.1349562,0.651489868 67.1349562,1.44593828 L67.1349562,29.8241633 C67.1349562,30.6186117 66.5104933,31.2430745 65.7160449,31.2430745 L35.4459383,31.2430745 C34.6514899,31.2430745 34.027027,30.6186117 34.027027,29.8241633 L34.027027,1.44593828 C34.027027,0.651489868 34.6514899,0.027027027 35.4459383,0.027027027 Z M50.5809916,5.22970161 C44.8405497,5.22970161 40.1756424,9.89475072 40.1756424,15.6350508 C40.1756424,21.3753508 44.8406915,26.0403999 50.5809916,26.0403999 C56.3212917,26.0403999 60.9863408,21.3753508 60.9863408,15.6350508 C60.9863408,9.89475072 56.3212917,5.22970161 50.5809916,5.22970161 Z M50.5814646,12.797181 C52.1537128,12.797181 53.4192871,14.0627552 53.4192871,15.6350035 C53.4192871,17.2072517 52.1537128,18.472826 50.5814646,18.472826 C49.0092163,18.472826 47.7436421,17.2072517 47.7436421,15.6350035 C47.7436421,14.0627552 49.0092163,12.797181 50.5814646,12.797181 Z M38.2839973,32.1892045 L43.9596423,32.1892045 L43.9596423,35.027027 L38.2839973,35.027027 L38.2839973,32.1892045 Z M57.2028139,32.1892045 L62.8784589,32.1892045 L62.8784589,35.027027 L57.2028139,35.027027 L57.2028139,32.1892045 Z" id="vault_icon"></path>
                    </g>
                </g>
            </g>
        </g>
    </g>
</svg>