
<svg width="33px" height="33px" viewBox="0 0 33 33" version="1.1" xmlns="http://www.w3.org/2000/svg" xmlns:xlink="http://www.w3.org/1999/xlink">
    <!-- Generator: Sketch 50.2 (55047) - http://www.bohemiancoding.com/sketch -->
    <desc>Created with Sketch.</desc>
    <defs></defs>
    <g id="Wireframes---Desktop" stroke="none" stroke-width="1" fill="none" fill-rule="evenodd">
        <g id="Dash---My-Files---Estate-Planning---Home-Management-(grid)" transform="translate(-1116.000000, -245.000000)" fill="#414142">
            <g id="Page-1" transform="translate(1116.000000, 245.000000)">
                <path d="M14.8483663,2.6164099 C14.8483663,1.17163069 13.6767356,0 12.2319564,0 L2.94294621,0 C1.498167,0 0.326536367,1.17163069 0.326536367,2.6164099 L0.326536367,11.9054198 C0.326536367,13.350199 1.498167,14.5218297 2.94294621,14.5218297 L12.2319564,14.5218297 C13.6767356,14.5218297 14.8483663,13.350199 14.8483663,11.9054198 L14.8483663,2.6164099 Z" id="Fill-1"></path>
                <path d="M33,2.6164099 C33,1.17163069 31.8283693,0 30.3835901,0 L21.0945802,0 C19.649801,0 18.4781703,1.17163069 18.4781703,2.6164099 L18.4781703,11.9054198 C18.4781703,13.350199 19.649801,14.5218297 21.0945802,14.5218297 L30.3835901,14.5218297 C31.8283693,14.5218297 33,13.350199 33,11.9054198 L33,2.6164099 Z" id="Fill-2"></path>
                <path d="M14.8483663,20.7677822 C14.8483663,19.323003 13.6767356,18.1513723 12.2319564,18.1513723 L2.94294621,18.1513723 C1.498167,18.1513723 0.326536367,19.323003 0.326536367,20.7677822 L0.326536367,30.0567924 C0.326536367,31.5015713 1.498167,32.6732022 2.94294621,32.6732022 L12.2319564,32.6732022 C13.6767356,32.6732022 14.8483663,31.5015716 14.8483663,30.0567924 L14.8483663,20.7677822 Z" id="Fill-3"></path>
                <path d="M33,20.7677822 C33,19.323003 31.8283693,18.1513723 30.3835901,18.1513723 L21.0945802,18.1513723 C19.649801,18.1513723 18.4781703,19.323003 18.4781703,20.7677822 L18.4781703,30.0567924 C18.4781703,31.5015713 19.649801,32.6732022 21.0945802,32.6732022 L30.3835901,32.6732022 C31.8283693,32.6732022 33,31.5015716 33,30.0567924 L33,20.7677822 Z" id="Fill-4"></path>
            </g>
        </g>
    </g>
</svg>