
<svg width="35px" height="32px" viewBox="0 0 35 32" version="1.1" xmlns="http://www.w3.org/2000/svg" xmlns:xlink="http://www.w3.org/1999/xlink">
    <!-- Generator: Sketch 50.2 (55047) - http://www.bohemiancoding.com/sketch -->
    <desc>Created with Sketch.</desc>
    <defs></defs>
    <g id="Wireframes---Desktop" stroke="none" stroke-width="1" fill="none" fill-rule="evenodd" fill-opacity="0.1">
        <g id="Dash---My-Files---Estate-Planning---Home-Management-(grid)" transform="translate(-1167.000000, -245.000000)" fill="#414142">
            <path d="M1167,273.58 C1167,272.196572 1167.83273,270.949678 1169.11079,270.419768 C1170.38884,269.89134 1171.85986,270.183754 1172.83805,271.161946 C1173.81625,272.140138 1174.1087,273.61116 1173.58023,274.889214 C1173.05032,276.167268 1171.80343,277 1170.42,277 C1168.53186,277 1167,275.468144 1167,273.58 Z M1170.42,251.92 C1171.80343,251.92 1173.05032,251.087268 1173.58023,249.809214 C1174.10866,248.53116 1173.81625,247.060142 1172.83805,246.081946 C1171.85986,245.10375 1170.38884,244.811302 1169.11079,245.339768 C1167.83273,245.869678 1167,247.116572 1167,248.5 C1167,250.388144 1168.53186,251.92 1170.42,251.92 Z M1170.42,264.46 C1171.80343,264.46 1173.05032,263.627268 1173.58023,262.349214 C1174.10866,261.07116 1173.81625,259.600142 1172.83805,258.621946 C1171.85986,257.64375 1170.38884,257.351302 1169.11079,257.879768 C1167.83273,258.409678 1167,259.656572 1167,261.04 C1167,262.928144 1168.53186,264.46 1170.42,264.46 Z M1181.82,250.78 L1198.92,250.78 C1200.17875,250.78 1201.2,249.75875 1201.2,248.5 C1201.2,247.24125 1200.17875,246.22 1198.92,246.22 L1181.82,246.22 C1180.56125,246.22 1179.54,247.24125 1179.54,248.5 C1179.54,249.75875 1180.56125,250.78 1181.82,250.78 Z M1181.82,263.32 L1198.92,263.32 C1200.17875,263.32 1201.2,262.29875 1201.2,261.04 C1201.2,259.78125 1200.17875,258.76 1198.92,258.76 L1181.82,258.76 C1180.56125,258.76 1179.54,259.78125 1179.54,261.04 C1179.54,262.29875 1180.56125,263.32 1181.82,263.32 Z M1181.82,275.86 L1198.92,275.86 C1200.17875,275.86 1201.2,274.83875 1201.2,273.58 C1201.2,272.32125 1200.17875,271.3 1198.92,271.3 L1181.82,271.3 C1180.56125,271.3 1179.54,272.32125 1179.54,273.58 C1179.54,274.83875 1180.56125,275.86 1181.82,275.86 Z" id="Page-1"></path>
        </g>
    </g>
</svg>