<?xml version="1.0" encoding="UTF-8"?>
<svg width="35px" height="35px" viewBox="0 0 35 35" version="1.1" xmlns="http://www.w3.org/2000/svg" xmlns:xlink="http://www.w3.org/1999/xlink">
    <!-- Generator: sketchtool 50.2 (55047) - http://www.bohemiancoding.com/sketch -->
    <title>238F87B8-F006-4E37-BEC3-D5CE0B75869B</title>
    <desc>Created with sketchtool.</desc>
    <defs></defs>
    <g id="Wireframes---Desktop" stroke="none" stroke-width="1" fill="none" fill-rule="evenodd" opacity="1">
        <g id="Dash---SmartGuide---SmartGuide-Templates" transform="translate(-30.000000, -208.000000)" fill="#FFFFFF">
            <g id="Category-Selection" transform="translate(-1.000000, 145.000000)">
                <g id="Smartguide">
                    <g transform="translate(0.000000, 63.000000)">
                        <path d="M52.3554881,6.08434049 C52.4694199,6.19675172 52.6182891,6.25447787 52.7671622,6.25447787 C52.9160314,6.25447787 53.0649007,6.19675172 53.1788363,6.08434049 C53.4066999,5.85799751 53.4066999,5.49039578 53.1788363,5.26402557 L48.0669374,0.170404239 C47.8405944,-0.0559387464 47.471476,-0.0559387464 47.2451058,0.170404239 C47.0172423,0.396747225 47.0172423,0.764348953 47.2451058,0.990719161 L52.3554881,6.08434049 Z M60.3078062,6.36993017 C60.4551588,6.36993017 60.604028,6.31220402 60.7179637,6.1997928 L65.8298626,1.10617147 C66.0562056,0.878307939 66.0562056,0.512226752 65.8298626,0.285856545 C65.6019991,0.0595135594 65.2344013,0.0595135594 65.0065144,0.285856545 L59.896171,5.37947788 C59.6683075,5.60582086 59.6683075,5.97342259 59.896171,6.1997928 C60.0085822,6.31220402 60.158972,6.36993017 60.3078451,6.36993017 L60.3078062,6.36993017 Z M57.0751961,6.04788637 C56.9521489,5.92483914 56.791127,5.86407579 56.6286001,5.86407579 C56.4675782,5.86407579 56.3050357,5.92483914 56.182004,6.04788637 L53.0982593,9.12097569 C52.8521687,9.36706628 52.8521687,9.76660328 53.0982593,10.01269 L56.182004,13.0842626 C56.3050513,13.2073099 56.4675937,13.2695899 56.6286001,13.2695899 C56.7911425,13.2695899 56.9521644,13.207306 57.0751961,13.0842626 L60.1589409,10.01269 C60.4050315,9.76659939 60.4050315,9.36706239 60.1589409,9.12097569 L57.0751961,6.04788637 Z M56.6286001,3.82229507 C56.9506439,3.82229507 57.2104116,3.56253127 57.2104116,3.24200024 L57.2104116,0.696006228 C57.2104116,0.375479081 56.9506478,0.115711393 56.6286001,0.115711393 C56.3080729,0.115711393 56.0467886,0.375475192 56.0467886,0.696006228 L56.0467886,3.24200024 C56.0467886,3.56252738 56.3080729,3.82229507 56.6286001,3.82229507 Z M65.4181885,8.9855269 L62.8630946,8.9855269 C62.5410508,8.9855269 62.2812831,9.24529069 62.2812831,9.56582173 C62.2812831,9.88634888 62.5410469,10.1461166 62.8630946,10.1461166 L65.4181885,10.1461166 C65.7402323,10.1461166 66,9.88635277 66,9.56582173 C66,9.24529458 65.7402362,8.9855269 65.4181885,8.9855269 Z M60.7181192,12.7786765 C60.4917762,12.5523335 60.1226579,12.5523335 59.8962877,12.7786765 C59.6684241,13.0050195 59.6684241,13.3726212 59.8962877,13.5989914 L65.0066311,18.6926127 C65.1205628,18.8065445 65.2694321,18.8627501 65.4183052,18.8627501 C65.5671744,18.8627501 65.7160436,18.8065445 65.8299793,18.6926127 C66.0563223,18.4662697 66.0563223,18.1001847 65.8299793,17.8738145 L60.7181192,12.7786765 Z M47.6570133,10.1461166 L50.2121072,10.1461166 C50.5326343,10.1461166 50.7939187,9.88635277 50.7939187,9.56582173 C50.7939187,9.24529458 50.5326343,8.9855269 50.2121072,8.9855269 L47.6570133,8.9855269 C47.3349695,8.9855269 47.0752018,9.24529069 47.0752018,9.56582173 C47.0752018,9.88634888 47.3349656,10.1461166 47.6570133,10.1461166 Z M56.6286001,15.6224012 C56.3080729,15.6224012 56.0467886,15.882165 56.0467886,16.2011793 L56.0467886,18.74869 C56.0467886,19.0692172 56.3080729,19.3289848 56.6286001,19.3289848 C56.9506439,19.3289848 57.2104116,19.069221 57.2104116,18.74869 L57.2104116,16.2011793 C57.2104116,15.8821727 56.9506478,15.6224012 56.6286001,15.6224012 Z M50.7754855,12.7877764 C50.58408,12.5978914 50.3334394,12.5021906 50.0828028,12.5021906 C49.833675,12.5021906 49.5830072,12.5978914 49.3916367,12.7877764 L31.8066262,30.3148426 C30.7311246,31.3873109 30.7311246,33.1236454 31.8066262,34.1961136 C32.3443769,34.7323477 33.0477155,34.9997065 33.7525703,34.9997065 C34.4574252,34.9997065 35.16228,34.7323477 35.7000308,34.1961136 L53.2850409,16.6690474 C53.6678481,16.2877569 53.6678481,15.6710118 53.2850409,15.2897097 L50.7754855,12.7877764 Z" id="wand_icon"></path>
                    </g>
                </g>
            </g>
        </g>
    </g>
</svg>