
<svg width="15px" height="15px" viewBox="0 0 15 15" version="1.1" xmlns="http://www.w3.org/2000/svg" xmlns:xlink="http://www.w3.org/1999/xlink">
    <!-- Generator: Sketch 50.2 (55047) - http://www.bohemiancoding.com/sketch -->
    <desc>Created with Sketch.</desc>
    <defs></defs>
    <g id="Wireframes---Desktop" stroke="none" stroke-width="1" fill="none" fill-rule="evenodd" opacity="0.3">
        <g id="Dash---My-Files---Estate-Planning---Home-Management-(list)" transform="translate(-604.000000, -456.000000)" fill="#000000">
            <g id="Page-1" transform="translate(604.000000, 456.000000)">
                <path d="M12.90525,4.04595 C12.90525,3.946341 12.8671635,3.852585 12.796851,3.78228 L11.217801,2.20323 C11.071317,2.056746 10.836936,2.056746 10.690461,2.20323 L0.16706175,12.72663 C0.02057775,12.873114 0.02057775,13.107495 0.16706175,13.25397 L1.7461125,14.8330197 C1.816425,14.9033322 1.9101825,14.9414187 2.0097825,14.9414187 C2.1093915,14.9414187 2.2031475,14.9033322 2.2734525,14.8330197 L12.796851,4.30962 C12.8671635,4.2393075 12.90525,4.14555 12.90525,4.04595 Z M9.51555,6.5391 L8.463795,5.487345 L10.956945,2.994195 L12.0087,4.04595 L9.51555,6.5391 Z" id="Fill-1"></path>
                <path d="M13.4532,3.0351 C13.4532,2.211855 14.11824,1.546815 14.941485,1.546815 C14.11824,1.546815 13.4532,0.881775 13.4532,0.05853 C13.4532,0.881775 12.78816,1.546815 11.964915,1.546815 C12.78816,1.546815 13.4532,2.211855 13.4532,3.0351 Z" id="Fill-2"></path>
                <path d="M8.24415,3.0351 C8.24415,2.211855 8.90919,1.546815 9.732435,1.546815 C8.90919,1.546815 8.24415,0.881775 8.24415,0.05853 C8.24415,0.881775 7.57911,1.546815 6.755865,1.546815 C7.57911,1.546815 8.24415,2.21478 8.24415,3.0351 Z" id="Fill-3"></path>
                <path d="M13.4532,5.26755 C13.4532,6.090795 12.78816,6.755835 11.964915,6.755835 C12.78816,6.755835 13.4532,7.420875 13.4532,8.24412 C13.4532,7.420875 14.11824,6.755835 14.941485,6.755835 C14.11824,6.755835 13.4532,6.090795 13.4532,5.26755 Z" id="Fill-4"></path>
            </g>
        </g>
    </g>
</svg>