<svg height="35" viewBox="0 0 117 35" width="117" xmlns="http://www.w3.org/2000/svg"><g fill="none"><path d="m112.8374 34.9253731h-108.73893333c-2.2594 0-4.09846667-1.8580298-4.09846667-4.1325447v-26.66639556c0-2.27538806 1.83906667-4.12643284 4.09846667-4.12643284h108.73893333c2.258533 0 4.1626 1.85104478 4.1626 4.12643284v26.66639556c0 2.2745149-1.904067 4.1325447-4.1626 4.1325447z" fill="#a6a6a6"/><path d="m116.161067 30.7937015c0 1.8475522-1.485467 3.3441045-3.3228 3.3441045h-108.73980033c-1.83646667 0-3.32713334-1.4965523-3.32713334-3.3441045v-26.6681418c0-1.8466791 1.49066667-3.34847015 3.32713334-3.34847015h108.73893333c1.8382 0 3.3228 1.50179105 3.3228 3.34847015z" fill="#000"/><g fill="#fff"><g transform="translate(10.4 5.238806)"><path d="m15.7109333 12.0352836c-.0251333-2.81411196 2.2871334-4.18318659 2.3928667-4.24692539-1.3095333-1.92351493-3.3392667-2.18632836-4.0525333-2.20728358-1.7047334-.18073881-3.3583334 1.0276791-4.22673337 1.0276791-.88573333 0-2.223-1.01021642-3.66426666-.98052985-1.85466667.02881343-3.58973334 1.11062687-4.54133334 2.79053731-1.96386666 3.42530601-.4992 8.45892541 1.38233334 11.22763431.9412 1.3559776 2.041 2.8699926 3.48053333 2.8167314 1.40833333-.0585 1.9344-.9045672 3.6339333-.9045672 1.6839334 0 2.1779334.9045672 3.6460667.8705149 1.5114667-.0244477 2.4630667-1.3620895 3.3713333-2.730291 1.0876667-1.5541791 1.5244667-3.0847836 1.5418-3.1633657-.0355333-.0122239-2.9354-1.1272164-2.964-4.5001343z"/><path d="m12.9376 3.75971642c.7574667-.95433582 1.2757333-2.25268657 1.1318667-3.57024627-1.0963334.04889552-2.4674.76399254-3.2569334 1.69737313-.6985333.82249254-1.3225333 2.17061194-1.1613333 3.43840299 1.2315333.09255224 2.496-.62603731 3.2864-1.56552985z"/></g><g transform="translate(36.4 15.716418)"><path d="m10.0923333 11.790806h-1.96819997l-1.07813333-3.41308212h-3.74746667l-1.027 3.41308212h-1.9162l3.7128-11.61967167h2.2932zm-3.3713333-4.84502242-.975-3.03414179c-.10313333-.30996269-.2964-1.03990298-.58153333-2.18894776h-.03466667c-.11353333.49419403-.2964 1.22413433-.54773333 2.18894776l-.95766667 3.03414179z"/><path d="m19.6404 7.49847761c0 1.42495523-.3822 2.55129849-1.1466 3.37815669-.6846667.7360523-1.5348667 1.1036418-2.5497333 1.1036418-1.0954667 0-1.8824-.396403-2.3616667-1.1892089h-.0346667v4.413694h-1.8477333v-9.0343209c0-.89583582-.0234-1.81524627-.0684667-2.75823134h1.625l.1031334 1.32803731h.0346666c.6162-1.00061194 1.5513334-1.50004478 2.8062667-1.50004478.9810667 0 1.8000667.39029105 2.4552667 1.17174627.6569333.78232836.9845333 1.8108806.9845333 3.08652985zm-1.8824.06810448c0-.81550746-.182-1.4878209-.5477333-2.0169403-.3995334-.55182089-.936-.82773134-1.6085334-.82773134-.4558666 0-.8701333.15367164-1.2402.45664925-.3709333.30559702-.6136.7046194-.7271333 1.19881343-.0572.23050747-.0858.41910448-.0858.56753732v1.39701492c0 .60944776.1854667 1.12372388.5564 1.5437015.3709333.41997763.8528.62952983 1.4456.62952983.6959333 0 1.2376-.2706716 1.625-.81026864.3882667-.54047015.5824-1.25294776.5824-2.13830597z"/><path d="m29.2058 7.49847761c0 1.42495523-.3822 2.55129849-1.1474667 3.37815669-.6838.7360523-1.534 1.1036418-2.5488666 1.1036418-1.0954667 0-1.8824-.396403-2.3608-1.1892089h-.0346667v4.413694h-1.8477333v-9.0343209c0-.89583582-.0234-1.81524627-.0684667-2.75823134h1.625l.1031333 1.32803731h.0346667c.6153333-1.00061194 1.5504667-1.50004478 2.8062667-1.50004478.9802 0 1.7992.39029105 2.4561333 1.17174627.6543333.78232836.9828 1.8108806.9828 3.08652985zm-1.8824.06810448c0-.81550746-.1828667-1.4878209-.5486-2.0169403-.3995333-.55182089-.9342667-.82773134-1.6076667-.82773134-.4567333 0-.8701333.15367164-1.2410666.45664925-.3709334.30559702-.6127334.7046194-.7262667 1.19881343-.0563333.23050747-.0858.41910448-.0858.56753732v1.39701492c0 .60944776.1854667 1.12372388.5546667 1.5437015.3709333.41910443.8528.62952983 1.4473333.62952983.6959333 0 1.2376-.2706716 1.625-.81026864.3882667-.54047015.5824-1.25294776.5824-2.13830597z"/><path d="m39.9004667 8.53226866c0 .98838806-.3406 1.79254474-1.0244 2.41334324-.7514.6784254-1.7974667 1.0172015-3.1416667 1.0172015-1.2410667 0-2.236-.240985-2.9891333-.7238283l.4281333-1.55155973c.8112.49419403 1.7012667.74216423 2.6710667.74216423.6959333 0 1.2376-.1589105 1.6267333-.47498512.3874-.31607463.5806667-.74041791.5806667-1.26953732 0-.47149253-.1594667-.86876865-.4792667-1.19095522-.3180667-.32218657-.8493333-.62167164-1.5912-.89845522-2.0193333-.75875373-3.0281333-1.87025373-3.0281333-3.3318806 0-.95520896.3536-1.73841045 1.0616666-2.34785821.7054667-.61032089 1.6466667-.91504478 2.8236-.91504478 1.0495334 0 1.9214.18423135 2.6173334.5518209l-.4619334 1.51750746c-.65-.3562388-1.3849333-.53435821-2.2074-.53435821-.65 0-1.1578666.16152985-1.5218666.48284329-.3076667.28726119-.4619334.63738806-.4619334 1.05212686 0 .45926866.1759334.83908209.5295334 1.13769403.3076666.27591045.8666666.57452239 1.6778666.89670896.9923334.40251492 1.7212.87313433 2.1900667 1.41273134.4671333.53785075.7002667 1.21103731.7002667 2.0143209z"/><path d="m46.0096 4.80922388h-2.0366667v4.06793284c0 1.03466418.3588 1.55155968 1.0781334 1.55155968.3302 0 .6040666-.0288134.8207333-.0864403l.0511333 1.4136045c-.364.1370821-.8432666.2060597-1.4369333.2060597-.7297333 0-1.3-.2243955-1.7116667-.6723134-.4099333-.4487911-.6162-1.2014329-.6162-2.25879854v-4.22335075h-1.2133333v-1.39701492h1.2133333v-1.53409702l1.8148-.55182089v2.08591791h2.0366667z"/><path d="m55.1988667 7.53252985c0 1.28787314-.3657334 2.34523881-1.0954667 3.17209705-.7652667.8513059-1.781 1.2756492-3.0472 1.2756492-1.2202667 0-2.1918-.4077537-2.9163333-1.2232612-.7245334-.81550744-1.0868-1.84493281-1.0868-3.08565669 0-1.29835075.3726666-2.36182836 1.1206-3.18868657.7462-.82773134 1.7532666-1.24159701 3.0194666-1.24159701 1.2202667 0 2.2022.40775373 2.9432 1.22413433.7089334.79193283 1.0625334 1.81437313 1.0625334 3.06732089zm-1.9170667.06024627c0-.77272388-.1638-1.43543284-.4957333-1.98812687-.3874-.66882089-.9412-1.00235821-1.6588-1.00235821-.7427334 0-1.3069334.33441045-1.6943334 1.00235821-.3319333.55356717-.4957333 1.22675374-.4957333 2.02305224 0 .77272388.1638 1.43543284.4957333 1.98725373.3995334.66882088.9576667 1.00235818 1.6778667 1.00235818.7054667 0 1.2592667-.3405224 1.6588-1.01982086.3406-.56317164.5122-1.23286567.5122-2.00471642z"/><path d="m61.2048667 5.04933582c-.1828667-.03405224-.3778667-.05151492-.5824-.05151492-.65 0-1.1526667.24709701-1.5062667.74216417-.3076667.43656717-.4619333.98838806-.4619333 1.65458956v4.39623137h-1.8468667l.0173333-5.7399851c0-.96568657-.0234-1.84493284-.0693333-2.63773881h1.6094l.0676 1.60307463h.0511333c.195-.55094776.5026667-.9945.9238667-1.32716418.4116667-.29948508.8562667-.44879105 1.3355333-.44879105.1707334 0 .325.01222388.4619334.03405224z"/><path d="m69.4685333 7.20510448c0 .33353731-.0216666.61468656-.0676.84432089h-5.5432c.0216667.82773135.2894667 1.46075373.8042667 1.8973209.4671333.39029103 1.0712.58587313 1.8130667.58587313.8207333 0 1.5695333-.1318433 2.2429333-.396403l.2894667 1.2922388c-.7869334.3457612-1.716.5177687-2.7880667.5177687-1.2896 0-2.3018667-.3824329-3.0385333-1.1464254-.7349334-.7639925-1.1032667-1.78992537-1.1032667-3.07692537 0-1.26342537.3423333-2.31555223 1.0278667-3.15463432.7176-.89583582 1.6874-1.34375374 2.9076666-1.34375374 1.1986 0 2.106.44791792 2.7222 1.34375374.4879334.71160447.7332 1.59172388.7332 2.63686567zm-1.7619333-.48284329c.0121333-.55182089-.1083333-1.02855223-.3588-1.43106716-.3198-.51776866-.8112-.77621642-1.4724667-.77621642-.6040666 0-1.0954666.25233582-1.4707333.75875373-.3076667.40251493-.4905333.88535821-.5468667 1.44765672h3.8488667z"/></g><g transform="translate(37.266667 5.238806)"><path d="m5.24333333 3.50039552c0 1.02767911-.30593333 1.80127612-.91693333 2.32079105-.56593333.47935074-1.3702.71946268-2.41193333.71946268-.51653334 0-.95853334-.02270149-1.3286-.06810447v-5.61512687c.48273333-.07858209 1.00273333-.11874627 1.56433333-.11874627.99233333 0 1.74026667.21741045 2.24466667.65223135.56506666.49157462.84846666 1.19444776.84846666 2.10949253zm-.95766666.0253209c0-.66620149-.17506667-1.17698508-.5252-1.53322388-.35013334-.35536567-.86146667-.53348508-1.53486667-.53348508-.286 0-.52953333.01920896-.73146667.05937314v4.26875373c.1118.01746268.31633334.02532089.6136.02532089.69506667 0 1.23153334-.19470895 1.6094-.58412686.37786667-.38941791.56853334-.95695523.56853334-1.70261194z"/><path d="m10.3211333 4.39797761c0 .63302239-.1794 1.15166418-.53819997 1.55854478-.37613333.41823134-.87446666.62691045-1.49673333.62691045-.59973333 0-1.07726667-.19994777-1.43346667-.60158956-.35533333-.40076865-.533-.90631343-.533-1.51576119 0-.63738806.18286667-1.16039552.55033334-1.56640299.36746666-.40600746.86146666-.60944776 1.48373333-.60944776.59973333 0 1.0816.19994776 1.44646667.60071642.34666663.38941791.52086663.89234328.52086663 1.50702985zm-.94206663.02968657c0-.37981343-.08146667-.70549254-.24353334-.97703731-.19066666-.32829851-.46193333-.49244777-.81466666-.49244777-.36486667 0-.6422.16414926-.83286667.49244777-.16293333.27154477-.24353333.60246268-.24353333.99362686 0 .37981343.08146666.70549254.24353333.97703731.19673333.32829851.4706.49244777.8242.49244777.34666667 0 .6188-.16676866.81466667-.50117911.16813333-.27678358.2522-.60508209.2522-.98489552z"/><path d="m17.1296667 2.37405224-1.2783334 4.11595522h-.832l-.5295333-1.78730597c-.1343333-.44617164-.2435333-.88972388-.3284667-1.32978358h-.0164666c-.0788667.45228358-.1880667.89496269-.3284667 1.32978358l-.5624667 1.78730597h-.8415333l-1.2020667-4.11595522h.9334l.4619334 1.95669403c.1118.46276119.2036666.90369403.2773333 1.32105224h.0164667c.0676-.34401493.1794-.78232836.3371333-1.3123209l.5798-1.96455224h.7401333l.5555334 1.92264179c.1343333.46887314.2435333.92028359.3276 1.35510448h.0251333c.0615333-.42347015.1542667-.8748806.2773333-1.35510448l.4957334-1.92264179h.8918z"/><path d="m21.8382667 6.49000746h-.9082667v-2.35746268c0-.72644777-.2738667-1.08967165-.8233333-1.08967165-.2695334 0-.4870667.09953732-.6560667.29948508-.1672667.19994776-.2522.43569403-.2522.70549254v2.44128358h-.9082667v-2.93897015c0-.36147761-.0112666-.75351493-.0329333-1.17785821h.7982l.0424667.6435h.0251333c.1057333-.19994776.2634667-.36497015.4706-.49681343.2461333-.15367164.5217333-.2313806.8233333-.2313806.3813334 0 .6985334.12398507.9507334.37282836.3137333.30472388.4706.75962686.4706 1.36383582z"/><path d="m24.3429333 6.49000746h-.9074v-6.00454477h.9074z"/><path d="m29.6902667 4.39797761c0 .63302239-.1794 1.15166418-.5382 1.55854478-.3761334.41823134-.8753334.62691045-1.4967334.62691045-.6006 0-1.0781333-.19994777-1.4334666-.60158956-.3553334-.40076865-.533-.90631343-.533-1.51576119 0-.63738806.1828666-1.16039552.5503333-1.56640299.3674667-.40600746.8614667-.60944776 1.4828667-.60944776.6006 0 1.0816.19994776 1.4473333.60071642.3466667.38941791.5208667.89234328.5208667 1.50702985zm-.9429334.02968657c0-.37981343-.0814666-.70549254-.2435333-.97703731-.1898-.32829851-.4619333-.49244777-.8138-.49244777-.3657333 0-.6430667.16414926-.8328667.49244777-.1629333.27154477-.2435333.60246268-.2435333.99362686 0 .37981343.0814667.70549254.2435333.97703731.1967334.32829851.4706.49244777.8242.49244777.3466667 0 .6179334-.16676866.8138-.50117911.169-.27678358.2522-.60508209.2522-.98489552z"/><path d="m34.086 6.49000746h-.8155333l-.0676-.47411194h-.0251334c-.2790666.37806717-.6768666.56753732-1.1934.56753732-.3856666 0-.6976666-.12485821-.9325333-.37282836-.2132-.22526866-.3198-.50554478-.3198-.83820896 0-.50292537.208-.88623134.6266-1.15166418.4177333-.26543283 1.0053333-.39552985 1.7619333-.38941791v-.07683582c0-.54221642-.2825333-.81288806-.8484666-.81288806-.403 0-.7583334.10215672-1.0651334.30472388l-.1846-.60071642c.3796-.2366194.8484667-.35536567 1.4014-.35536567 1.0677334 0 1.6033334.56753732 1.6033334 1.70261194v1.5157612c0 .41124627.0199333.73867164.0589333.98140298zm-.9429333-1.41447761v-.63476866c-1.0018667-.01746268-1.5028.2593209-1.5028.82947762 0 .21479104.0572.37544776.1742.48284328s.2660666.16065672.4437333.16065672c.1993333 0 .3856667-.06373881.5555333-.19034329.1707334-.12747761.2756-.28900746.3146-.48720895.0095334-.04452985.0147334-.09866418.0147334-.16065672z"/><path d="m39.247 6.49000746h-.806l-.0424667-.66096268h-.0251333c-.2574.50292537-.6959333.75438806-1.3121333.75438806-.4922667 0-.9022-.19470896-1.2272-.58412687s-.4870667-.89496269-.4870667-1.51576119c0-.6662015.1759333-1.20579851.5295333-1.61791791.3423334-.38417911.7618-.57626866 1.261-.57626866.5486 0 .9325334.18597761 1.1509334.55880597h.0173333v-2.36270149h.9091333v4.89566418c0 .40076865.0104.77010447.0320667 1.10888059zm-.9412-1.73579104v-.68628358c0-.11874627-.0086667-.21479105-.0251333-.28813433-.0511334-.22002985-.1612-.40513433-.3284667-.5544403-.169-.14930597-.3726667-.22439552-.6075333-.22439552-.3388667 0-.6040667.13533582-.7990667.40688059-.1932667.27154478-.2912.61817911-.2912 1.04164926 0 .40688059.0927333.73692537.2790667.99100746.1967333.27067164.4619333.40600746.7938666.40600746.2981334 0 .5364667-.11263433.7176-.33877612.1750667-.2086791.2608667-.46014179.2608667-.75351492z"/><path d="m47.0149333 4.39797761c0 .63302239-.1794 1.15166418-.5382 1.55854478-.3761333.41823134-.8736.62691045-1.4967333.62691045-.5988667 0-1.0764-.19994777-1.4334667-.60158956-.3553333-.40076865-.533-.90631343-.533-1.51576119 0-.63738806.1828667-1.16039552.5503334-1.56640299.3674666-.40600746.8614666-.60944776 1.4846-.60944776.5988666 0 1.0816.19994776 1.4456.60071642.3466666.38941791.5208666.89234328.5208666 1.50702985zm-.9412.02968657c0-.37981343-.0814666-.70549254-.2435333-.97703731-.1915333-.32829851-.4619333-.49244777-.8155333-.49244777-.364 0-.6413334.16414926-.8328667.49244777-.1629333.27154477-.2435333.60246268-.2435333.99362686 0 .37981343.0814666.70549254.2435333.97703731.1967333.32829851.4706.49244777.8242.49244777.3466667 0 .6196667-.16676866.8155333-.50117911.1672667-.27678358.2522-.60508209.2522-.98489552z"/><path d="m51.8986 6.49000746h-.9074v-2.35746268c0-.72644777-.2738667-1.08967165-.8242-1.08967165-.2695333 0-.4870667.09953732-.6552.29948508s-.2522.43569403-.2522.70549254v2.44128358h-.9091333v-2.93897015c0-.36147761-.0104-.75351493-.0320667-1.17785821h.7973333l.0424667.6435h.0251333c.1066-.19994776.2643334-.36497015.4706-.49681343.247-.15367164.5217334-.2313806.8242-.2313806.3804667 0 .6976667.12398507.9498667.37282836.3146.30472388.4706.75962686.4706 1.36383582z"/><path d="m58.0112 3.05946269h-1.0001333v1.99947761c0 .50816418.1776666.76224627.5295333.76224627.1629333 0 .2981333-.01397015.4047333-.04278358l.0234.69414179c-.1794.06810447-.4151333.10215671-.7054666.10215671-.3588 0-.6378667-.11001492-.8398-.33004477-.2028-.22002985-.3033334-.59023881-.3033334-1.10975373v-2.0754403h-.5971333v-.68541045h.5971333v-.75438806l.8900667-.27067164v1.02418656h1.0001333v.68628359z"/><path d="m62.8194667 6.49000746h-.9091334v-2.34c0-.7377985-.2738666-1.10713433-.8224666-1.10713433-.4212 0-.7089334.21391791-.8666667.64175374-.0268667.08993283-.0424667.19994776-.0424667.32917164v2.47533582h-.9074v-6.00367164h.9074v2.48057462h.0173334c.286-.45141044.6959333-.6766791 1.2272-.6766791.3761333 0 .6872666.12398507.9342666.37282836.3076667.30996268.4619334.77097761.4619334 1.38042537z"/><path d="m67.7794 4.2373209c0 .16414925-.0121333.30210447-.0338.4147388h-2.7239333c.0121333.4068806.1421333.71684329.3943333.93163433.2305333.19208955.5278.28813433.8918.28813433.403 0 .7704667-.06461194 1.1015333-.19470896l.1421334.63564179c-.3874.16938806-.8432667.25408209-1.3710667.25408209-.6326667 0-1.131-.18772388-1.4915333-.56317164-.3622667-.37544776-.5416667-.87924627-.5416667-1.51139552 0-.62079851.1672667-1.13769403.5044-1.54981343.3518667-.4400597.8276667-.66008956 1.4282667-.66008956.5876 0 1.0339333.22002986 1.3355333.66008956.2435333.34925373.364.78145522.364 1.29485821zm-.8666667-.23661941c.0069334-.27154477-.0528666-.50554477-.1759333-.70287313-.1577333-.25408209-.3978-.3815597-.7228-.3815597-.2964 0-.5382.12398507-.7228.37282835-.1508.1982015-.2400667.4348209-.2695333.71160448z"/></g></g></g></svg>