
<svg width="117px" height="35px" viewBox="0 0 117 35" version="1.1" xmlns="http://www.w3.org/2000/svg" xmlns:xlink="http://www.w3.org/1999/xlink">
  <!-- Generator: Sketch 50.2 (55047) - http://www.bohemiancoding.com/sketch -->
  <desc>Created with Sketch.</desc>
  <defs></defs>
  <g id="Wireframes---Desktop" stroke="none" stroke-width="1" fill="none" fill-rule="evenodd">
    <g id="Secure-with-Mobile" transform="translate(-647.000000, -618.000000)" fill-rule="nonzero">
      <g id="badge_appstore-lrg" transform="translate(647.000000, 618.000000)">
        <path d="M112.8374,34.9253731 L4.09846667,34.9253731 C1.83906667,34.9253731 0,33.0673433 0,30.7928284 L0,4.12643284 C0,1.85104478 1.83906667,0 4.09846667,0 L112.8374,0 C115.095933,0 117,1.85104478 117,4.12643284 L117,30.7928284 C117,33.0673433 115.095933,34.9253731 112.8374,34.9253731 Z" id="Shape" fill="#A6A6A6"></path>
        <path d="M116.161067,30.7937015 C116.161067,32.6412537 114.6756,34.137806 112.838267,34.137806 L4.09846667,34.137806 C2.262,34.137806 0.771333333,32.6412537 0.771333333,30.7937015 L0.771333333,4.1255597 C0.771333333,2.2788806 2.262,0.777089552 4.09846667,0.777089552 L112.8374,0.777089552 C114.6756,0.777089552 116.1602,2.2788806 116.1602,4.1255597 L116.161067,30.7937015 Z" id="Shape" fill="#000000"></path>
        <g id="Group" transform="translate(10.400000, 5.238806)" fill="#FFFFFF">
          <path d="M15.7109333,12.0352836 C15.6858,9.22117164 17.9980667,7.85209701 18.1038,7.78835821 C16.7942667,5.86484328 14.7645333,5.60202985 14.0512667,5.58107463 C12.3465333,5.40033582 10.6929333,6.60875373 9.82453333,6.60875373 C8.9388,6.60875373 7.60153333,5.59853731 6.16026667,5.62822388 C4.3056,5.65703731 2.57053333,6.73885075 1.61893333,8.41876119 C-0.344933333,11.8440672 1.11973333,16.8776866 3.00126667,19.6463955 C3.94246667,21.0023731 5.04226667,22.5163881 6.4818,22.4631269 C7.89013333,22.4046269 8.4162,21.5585597 10.1157333,21.5585597 C11.7996667,21.5585597 12.2936667,22.4631269 13.7618,22.4290746 C15.2732667,22.4046269 16.2248667,21.0669851 17.1331333,19.6987836 C18.2208,18.1446045 18.6576,16.614 18.6749333,16.5354179 C18.6394,16.523194 15.7395333,15.4082015 15.7109333,12.0352836 Z" id="Shape"></path>
          <path d="M12.9376,3.75971642 C13.6950667,2.8053806 14.2133333,1.50702985 14.0694667,0.189470149 C12.9731333,0.238365672 11.6020667,0.953462687 10.8125333,1.88684328 C10.114,2.70933582 9.49,4.05745522 9.6512,5.32524627 C10.8827333,5.41779851 12.1472,4.69920896 12.9376,3.75971642 Z" id="Shape"></path>
        </g>
        <g id="Group" transform="translate(36.400000, 15.716418)" fill="#FFFFFF">
          <path d="M10.0923333,11.790806 L8.12413333,11.790806 L7.046,8.37772388 L3.29853333,8.37772388 L2.27153333,11.790806 L0.355333333,11.790806 L4.06813333,0.171134328 L6.36133333,0.171134328 L10.0923333,11.790806 Z M6.721,6.94578358 L5.746,3.91164179 C5.64286667,3.6016791 5.4496,2.87173881 5.16446667,1.72269403 L5.1298,1.72269403 C5.01626667,2.21688806 4.8334,2.94682836 4.58206667,3.91164179 L3.6244,6.94578358 L6.721,6.94578358 Z" id="Shape"></path>
          <path d="M19.6404,7.49847761 C19.6404,8.92343284 19.2582,10.0497761 18.4938,10.8766343 C17.8091333,11.6126866 16.9589333,11.9802761 15.9440667,11.9802761 C14.8486,11.9802761 14.0616667,11.5838731 13.5824,10.7910672 L13.5477333,10.7910672 L13.5477333,15.2047612 L11.7,15.2047612 L11.7,6.1704403 C11.7,5.27460448 11.6766,4.35519403 11.6315333,3.41220896 L13.2565333,3.41220896 L13.3596667,4.74024627 L13.3943333,4.74024627 C14.0105333,3.73963433 14.9456667,3.24020149 16.2006,3.24020149 C17.1816667,3.24020149 18.0006667,3.63049254 18.6558667,4.41194776 C19.3128,5.19427612 19.6404,6.22282836 19.6404,7.49847761 Z M17.758,7.56658209 C17.758,6.75107463 17.576,6.07876119 17.2102667,5.54964179 C16.8107333,4.9978209 16.2742667,4.72191045 15.6017333,4.72191045 C15.1458667,4.72191045 14.7316,4.87558209 14.3615333,5.1785597 C13.9906,5.48415672 13.7479333,5.8831791 13.6344,6.37737313 C13.5772,6.6078806 13.5486,6.79647761 13.5486,6.94491045 L13.5486,8.34192537 C13.5486,8.95137313 13.7340667,9.46564925 14.105,9.88562687 C14.4759333,10.3056045 14.9578,10.5151567 15.5506,10.5151567 C16.2465333,10.5151567 16.7882,10.2444851 17.1756,9.70488806 C17.5638667,9.16441791 17.758,8.4519403 17.758,7.56658209 Z" id="Shape"></path>
          <path d="M29.2058,7.49847761 C29.2058,8.92343284 28.8236,10.0497761 28.0583333,10.8766343 C27.3745333,11.6126866 26.5243333,11.9802761 25.5094667,11.9802761 C24.414,11.9802761 23.6270667,11.5838731 23.1486667,10.7910672 L23.114,10.7910672 L23.114,15.2047612 L21.2662667,15.2047612 L21.2662667,6.1704403 C21.2662667,5.27460448 21.2428667,4.35519403 21.1978,3.41220896 L22.8228,3.41220896 L22.9259333,4.74024627 L22.9606,4.74024627 C23.5759333,3.73963433 24.5110667,3.24020149 25.7668667,3.24020149 C26.7470667,3.24020149 27.5660667,3.63049254 28.223,4.41194776 C28.8773333,5.19427612 29.2058,6.22282836 29.2058,7.49847761 Z M27.3234,7.56658209 C27.3234,6.75107463 27.1405333,6.07876119 26.7748,5.54964179 C26.3752667,4.9978209 25.8405333,4.72191045 25.1671333,4.72191045 C24.7104,4.72191045 24.297,4.87558209 23.9260667,5.1785597 C23.5551333,5.48415672 23.3133333,5.8831791 23.1998,6.37737313 C23.1434667,6.6078806 23.114,6.79647761 23.114,6.94491045 L23.114,8.34192537 C23.114,8.95137313 23.2994667,9.46564925 23.6686667,9.88562687 C24.0396,10.3047313 24.5214667,10.5151567 25.116,10.5151567 C25.8119333,10.5151567 26.3536,10.2444851 26.741,9.70488806 C27.1292667,9.16441791 27.3234,8.4519403 27.3234,7.56658209 Z" id="Shape"></path>
          <path d="M39.9004667,8.53226866 C39.9004667,9.52065672 39.5598667,10.3248134 38.8760667,10.9456119 C38.1246667,11.6240373 37.0786,11.9628134 35.7344,11.9628134 C34.4933333,11.9628134 33.4984,11.7218284 32.7452667,11.2389851 L33.1734,9.68742537 C33.9846,10.1816194 34.8746667,10.4295896 35.8444667,10.4295896 C36.5404,10.4295896 37.0820667,10.2706791 37.4712,9.95460448 C37.8586,9.63852985 38.0518667,9.21418657 38.0518667,8.68506716 C38.0518667,8.21357463 37.8924,7.81629851 37.5726,7.49411194 C37.2545333,7.17192537 36.7232667,6.8724403 35.9814,6.59565672 C33.9620667,5.83690299 32.9532667,4.72540299 32.9532667,3.26377612 C32.9532667,2.30856716 33.3068667,1.52536567 34.0149333,0.91591791 C34.7204,0.305597015 35.6616,0.000873134328 36.8385333,0.000873134328 C37.8880667,0.000873134328 38.7599333,0.185104478 39.4558667,0.55269403 L38.9939333,2.07020149 C38.3439333,1.71396269 37.609,1.53584328 36.7865333,1.53584328 C36.1365333,1.53584328 35.6286667,1.69737313 35.2646667,2.01868657 C34.957,2.30594776 34.8027333,2.65607463 34.8027333,3.07081343 C34.8027333,3.53008209 34.9786667,3.90989552 35.3322667,4.20850746 C35.6399333,4.48441791 36.1989333,4.78302985 37.0101333,5.10521642 C38.0024667,5.50773134 38.7313333,5.97835075 39.2002,6.51794776 C39.6673333,7.05579851 39.9004667,7.72898507 39.9004667,8.53226866 Z" id="Shape"></path>
          <path d="M46.0096,4.80922388 L43.9729333,4.80922388 L43.9729333,8.87715672 C43.9729333,9.9118209 44.3317333,10.4287164 45.0510667,10.4287164 C45.3812667,10.4287164 45.6551333,10.399903 45.8718,10.3422761 L45.9229333,11.7558806 C45.5589333,11.8929627 45.0796667,11.9619403 44.486,11.9619403 C43.7562667,11.9619403 43.186,11.7375448 42.7743333,11.2896269 C42.3644,10.8408358 42.1581333,10.088194 42.1581333,9.03082836 L42.1581333,4.80747761 L40.9448,4.80747761 L40.9448,3.41046269 L42.1581333,3.41046269 L42.1581333,1.87636567 L43.9729333,1.32454478 L43.9729333,3.41046269 L46.0096,3.41046269 L46.0096,4.80922388 Z" id="Shape"></path>
          <path d="M55.1988667,7.53252985 C55.1988667,8.82040299 54.8331333,9.87776866 54.1034,10.7046269 C53.3381333,11.5559328 52.3224,11.9802761 51.0562,11.9802761 C49.8359333,11.9802761 48.8644,11.5725224 48.1398667,10.7570149 C47.4153333,9.94150746 47.0530667,8.91208209 47.0530667,7.67135821 C47.0530667,6.37300746 47.4257333,5.30952985 48.1736667,4.48267164 C48.9198667,3.6549403 49.9269333,3.24107463 51.1931333,3.24107463 C52.4134,3.24107463 53.3953333,3.64882836 54.1363333,4.46520896 C54.8452667,5.25714179 55.1988667,6.27958209 55.1988667,7.53252985 Z M53.2818,7.59277612 C53.2818,6.82005224 53.118,6.15734328 52.7860667,5.60464925 C52.3986667,4.93582836 51.8448667,4.60229104 51.1272667,4.60229104 C50.3845333,4.60229104 49.8203333,4.93670149 49.4329333,5.60464925 C49.101,6.15821642 48.9372,6.83140299 48.9372,7.62770149 C48.9372,8.40042537 49.101,9.06313433 49.4329333,9.61495522 C49.8324667,10.2837761 50.3906,10.6173134 51.1108,10.6173134 C51.8162667,10.6173134 52.3700667,10.276791 52.7696,9.59749254 C53.1102,9.0343209 53.2818,8.36462687 53.2818,7.59277612 Z" id="Shape"></path>
          <path d="M61.2048667,5.04933582 C61.022,5.01528358 60.827,4.9978209 60.6224667,4.9978209 C59.9724667,4.9978209 59.4698,5.24491791 59.1162,5.73998507 C58.8085333,6.17655224 58.6542667,6.72837313 58.6542667,7.39457463 L58.6542667,11.790806 L56.8074,11.790806 L56.8247333,6.0508209 C56.8247333,5.08513433 56.8013333,4.20588806 56.7554,3.41308209 L58.3648,3.41308209 L58.4324,5.01615672 L58.4835333,5.01615672 C58.6785333,4.46520896 58.9862,4.02165672 59.4074,3.68899254 C59.8190667,3.38950746 60.2636667,3.24020149 60.7429333,3.24020149 C60.9136667,3.24020149 61.0679333,3.25242537 61.2048667,3.27425373 L61.2048667,5.04933582 Z" id="Shape"></path>
          <path d="M69.4685333,7.20510448 C69.4685333,7.53864179 69.4468667,7.81979104 69.4009333,8.04942537 L63.8577333,8.04942537 C63.8794,8.87715672 64.1472,9.5101791 64.662,9.94674627 C65.1291333,10.3370373 65.7332,10.5326194 66.4750667,10.5326194 C67.2958,10.5326194 68.0446,10.4007761 68.718,10.1362164 L69.0074667,11.4284552 C68.2205333,11.7742164 67.2914667,11.9462239 66.2194,11.9462239 C64.9298,11.9462239 63.9175333,11.563791 63.1808667,10.7997985 C62.4459333,10.035806 62.0776,9.00987313 62.0776,7.72287313 C62.0776,6.45944776 62.4199333,5.4073209 63.1054667,4.56823881 C63.8230667,3.67240299 64.7928667,3.22448507 66.0131333,3.22448507 C67.2117333,3.22448507 68.1191333,3.67240299 68.7353333,4.56823881 C69.2232667,5.27984328 69.4685333,6.15996269 69.4685333,7.20510448 Z M67.7066,6.72226119 C67.7187333,6.1704403 67.5982667,5.69370896 67.3478,5.29119403 C67.028,4.77342537 66.5366,4.51497761 65.8753333,4.51497761 C65.2712667,4.51497761 64.7798667,4.76731343 64.4046,5.27373134 C64.0969333,5.67624627 63.9140667,6.15908955 63.8577333,6.72138806 L67.7066,6.72138806 L67.7066,6.72226119 Z" id="Shape"></path>
        </g>
        <g id="Group" transform="translate(37.266667, 5.238806)" fill="#FFFFFF">
          <path d="M5.24333333,3.50039552 C5.24333333,4.52807463 4.9374,5.30167164 4.3264,5.82118657 C3.76046667,6.30053731 2.9562,6.54064925 1.91446667,6.54064925 C1.39793333,6.54064925 0.955933333,6.51794776 0.585866667,6.47254478 L0.585866667,0.85741791 C1.0686,0.778835821 1.5886,0.738671642 2.1502,0.738671642 C3.14253333,0.738671642 3.89046667,0.95608209 4.39486667,1.39090299 C4.95993333,1.88247761 5.24333333,2.58535075 5.24333333,3.50039552 Z M4.28566667,3.52571642 C4.28566667,2.85951493 4.1106,2.34873134 3.76046667,1.99249254 C3.41033333,1.63712687 2.899,1.45900746 2.2256,1.45900746 C1.9396,1.45900746 1.69606667,1.47821642 1.49413333,1.5183806 L1.49413333,5.78713433 C1.60593333,5.80459701 1.81046667,5.81245522 2.10773333,5.81245522 C2.8028,5.81245522 3.33926667,5.61774627 3.71713333,5.22832836 C4.095,4.83891045 4.28566667,4.27137313 4.28566667,3.52571642 Z" id="Shape"></path>
          <path d="M10.3211333,4.39797761 C10.3211333,5.031 10.1417333,5.54964179 9.78293333,5.95652239 C9.4068,6.37475373 8.90846667,6.58343284 8.2862,6.58343284 C7.68646667,6.58343284 7.20893333,6.38348507 6.85273333,5.98184328 C6.4974,5.58107463 6.31973333,5.07552985 6.31973333,4.46608209 C6.31973333,3.82869403 6.5026,3.30568657 6.87006667,2.8996791 C7.23753333,2.49367164 7.73153333,2.29023134 8.3538,2.29023134 C8.95353333,2.29023134 9.4354,2.4901791 9.80026667,2.89094776 C10.1469333,3.28036567 10.3211333,3.78329104 10.3211333,4.39797761 Z M9.37906667,4.42766418 C9.37906667,4.04785075 9.2976,3.72217164 9.13553333,3.45062687 C8.94486667,3.12232836 8.6736,2.9581791 8.32086667,2.9581791 C7.956,2.9581791 7.67866667,3.12232836 7.488,3.45062687 C7.32506667,3.72217164 7.24446667,4.05308955 7.24446667,4.44425373 C7.24446667,4.82406716 7.32593333,5.14974627 7.488,5.42129104 C7.68473333,5.74958955 7.9586,5.91373881 8.3122,5.91373881 C8.65886667,5.91373881 8.931,5.74697015 9.12686667,5.4125597 C9.295,5.13577612 9.37906667,4.80747761 9.37906667,4.42766418 Z" id="Shape"></path>
          <path d="M17.1296667,2.37405224 L15.8513333,6.49000746 L15.0193333,6.49000746 L14.4898,4.70270149 C14.3554667,4.25652985 14.2462667,3.81297761 14.1613333,3.37291791 L14.1448667,3.37291791 C14.066,3.82520149 13.9568,4.2678806 13.8164,4.70270149 L13.2539333,6.49000746 L12.4124,6.49000746 L11.2103333,2.37405224 L12.1437333,2.37405224 L12.6056667,4.33074627 C12.7174667,4.79350746 12.8093333,5.2344403 12.883,5.65179851 L12.8994667,5.65179851 C12.9670667,5.30778358 13.0788667,4.86947015 13.2366,4.33947761 L13.8164,2.37492537 L14.5565333,2.37492537 L15.1120667,4.29756716 C15.2464,4.7664403 15.3556,5.21785075 15.4396667,5.65267164 L15.4648,5.65267164 C15.5263333,5.22920149 15.6190667,4.77779104 15.7421333,4.29756716 L16.2378667,2.37492537 L17.1296667,2.37492537 L17.1296667,2.37405224 Z" id="Shape"></path>
          <path d="M21.8382667,6.49000746 L20.93,6.49000746 L20.93,4.13254478 C20.93,3.40609701 20.6561333,3.04287313 20.1066667,3.04287313 C19.8371333,3.04287313 19.6196,3.14241045 19.4506,3.34235821 C19.2833333,3.54230597 19.1984,3.77805224 19.1984,4.04785075 L19.1984,6.48913433 L18.2901333,6.48913433 L18.2901333,3.55016418 C18.2901333,3.18868657 18.2788667,2.79664925 18.2572,2.37230597 L19.0554,2.37230597 L19.0978667,3.01580597 L19.123,3.01580597 C19.2287333,2.81585821 19.3864667,2.65083582 19.5936,2.51899254 C19.8397333,2.3653209 20.1153333,2.28761194 20.4169333,2.28761194 C20.7982667,2.28761194 21.1154667,2.41159701 21.3676667,2.6604403 C21.6814,2.96516418 21.8382667,3.42006716 21.8382667,4.02427612 L21.8382667,6.49000746 Z" id="Shape"></path>
          <polygon id="Shape" points="24.3429333 6.49000746 23.4355333 6.49000746 23.4355333 0.485462687 24.3429333 0.485462687"></polygon>
          <path d="M29.6902667,4.39797761 C29.6902667,5.031 29.5108667,5.54964179 29.1520667,5.95652239 C28.7759333,6.37475373 28.2767333,6.58343284 27.6553333,6.58343284 C27.0547333,6.58343284 26.5772,6.38348507 26.2218667,5.98184328 C25.8665333,5.58107463 25.6888667,5.07552985 25.6888667,4.46608209 C25.6888667,3.82869403 25.8717333,3.30568657 26.2392,2.8996791 C26.6066667,2.49367164 27.1006667,2.29023134 27.7220667,2.29023134 C28.3226667,2.29023134 28.8036667,2.4901791 29.1694,2.89094776 C29.5160667,3.28036567 29.6902667,3.78329104 29.6902667,4.39797761 Z M28.7473333,4.42766418 C28.7473333,4.04785075 28.6658667,3.72217164 28.5038,3.45062687 C28.314,3.12232836 28.0418667,2.9581791 27.69,2.9581791 C27.3242667,2.9581791 27.0469333,3.12232836 26.8571333,3.45062687 C26.6942,3.72217164 26.6136,4.05308955 26.6136,4.44425373 C26.6136,4.82406716 26.6950667,5.14974627 26.8571333,5.42129104 C27.0538667,5.74958955 27.3277333,5.91373881 27.6813333,5.91373881 C28.028,5.91373881 28.2992667,5.74697015 28.4951333,5.4125597 C28.6641333,5.13577612 28.7473333,4.80747761 28.7473333,4.42766418 Z" id="Shape"></path>
          <path d="M34.086,6.49000746 L33.2704667,6.49000746 L33.2028667,6.01589552 L33.1777333,6.01589552 C32.8986667,6.39396269 32.5008667,6.58343284 31.9843333,6.58343284 C31.5986667,6.58343284 31.2866667,6.45857463 31.0518,6.21060448 C30.8386,5.98533582 30.732,5.7050597 30.732,5.37239552 C30.732,4.86947015 30.94,4.48616418 31.3586,4.22073134 C31.7763333,3.95529851 32.3639333,3.82520149 33.1205333,3.83131343 L33.1205333,3.75447761 C33.1205333,3.21226119 32.838,2.94158955 32.2720667,2.94158955 C31.8690667,2.94158955 31.5137333,3.04374627 31.2069333,3.24631343 L31.0223333,2.64559701 C31.4019333,2.40897761 31.8708,2.29023134 32.4237333,2.29023134 C33.4914667,2.29023134 34.0270667,2.85776866 34.0270667,3.99284328 L34.0270667,5.50860448 C34.0270667,5.91985075 34.047,6.24727612 34.086,6.49000746 Z M33.1430667,5.07552985 L33.1430667,4.44076119 C32.1412,4.42329851 31.6402667,4.70008209 31.6402667,5.27023881 C31.6402667,5.48502985 31.6974667,5.64568657 31.8144667,5.75308209 C31.9314667,5.86047761 32.0805333,5.91373881 32.2582,5.91373881 C32.4575333,5.91373881 32.6438667,5.85 32.8137333,5.72339552 C32.9844667,5.59591791 33.0893333,5.43438806 33.1283333,5.23618657 C33.1378667,5.19165672 33.1430667,5.13752239 33.1430667,5.07552985 Z" id="Shape"></path>
          <path d="M39.247,6.49000746 L38.441,6.49000746 L38.3985333,5.82904478 L38.3734,5.82904478 C38.116,6.33197015 37.6774667,6.58343284 37.0612667,6.58343284 C36.569,6.58343284 36.1590667,6.38872388 35.8340667,5.99930597 C35.5090667,5.60988806 35.347,5.10434328 35.347,4.48354478 C35.347,3.81734328 35.5229333,3.27774627 35.8765333,2.86562687 C36.2188667,2.48144776 36.6383333,2.28935821 37.1375333,2.28935821 C37.6861333,2.28935821 38.0700667,2.47533582 38.2884667,2.84816418 L38.3058,2.84816418 L38.3058,0.485462687 L39.2149333,0.485462687 L39.2149333,5.38112687 C39.2149333,5.78189552 39.2253333,6.15123134 39.247,6.49000746 Z M38.3058,4.75421642 L38.3058,4.06793284 C38.3058,3.94918657 38.2971333,3.85314179 38.2806667,3.77979851 C38.2295333,3.55976866 38.1194667,3.37466418 37.9522,3.22535821 C37.7832,3.07605224 37.5795333,3.00096269 37.3446667,3.00096269 C37.0058,3.00096269 36.7406,3.13629851 36.5456,3.40784328 C36.3523333,3.67938806 36.2544,4.02602239 36.2544,4.44949254 C36.2544,4.85637313 36.3471333,5.18641791 36.5334667,5.4405 C36.7302,5.71117164 36.9954,5.84650746 37.3273333,5.84650746 C37.6254667,5.84650746 37.8638,5.73387313 38.0449333,5.50773134 C38.22,5.29905224 38.3058,5.04758955 38.3058,4.75421642 Z" id="Shape"></path>
          <path d="M47.0149333,4.39797761 C47.0149333,5.031 46.8355333,5.54964179 46.4767333,5.95652239 C46.1006,6.37475373 45.6031333,6.58343284 44.98,6.58343284 C44.3811333,6.58343284 43.9036,6.38348507 43.5465333,5.98184328 C43.1912,5.58107463 43.0135333,5.07552985 43.0135333,4.46608209 C43.0135333,3.82869403 43.1964,3.30568657 43.5638667,2.8996791 C43.9313333,2.49367164 44.4253333,2.29023134 45.0484667,2.29023134 C45.6473333,2.29023134 46.1300667,2.4901791 46.4940667,2.89094776 C46.8407333,3.28036567 47.0149333,3.78329104 47.0149333,4.39797761 Z M46.0737333,4.42766418 C46.0737333,4.04785075 45.9922667,3.72217164 45.8302,3.45062687 C45.6386667,3.12232836 45.3682667,2.9581791 45.0146667,2.9581791 C44.6506667,2.9581791 44.3733333,3.12232836 44.1818,3.45062687 C44.0188667,3.72217164 43.9382667,4.05308955 43.9382667,4.44425373 C43.9382667,4.82406716 44.0197333,5.14974627 44.1818,5.42129104 C44.3785333,5.74958955 44.6524,5.91373881 45.006,5.91373881 C45.3526667,5.91373881 45.6256667,5.74697015 45.8215333,5.4125597 C45.9888,5.13577612 46.0737333,4.80747761 46.0737333,4.42766418 Z" id="Shape"></path>
          <path d="M51.8986,6.49000746 L50.9912,6.49000746 L50.9912,4.13254478 C50.9912,3.40609701 50.7173333,3.04287313 50.167,3.04287313 C49.8974667,3.04287313 49.6799333,3.14241045 49.5118,3.34235821 C49.3436667,3.54230597 49.2596,3.77805224 49.2596,4.04785075 L49.2596,6.48913433 L48.3504667,6.48913433 L48.3504667,3.55016418 C48.3504667,3.18868657 48.3400667,2.79664925 48.3184,2.37230597 L49.1157333,2.37230597 L49.1582,3.01580597 L49.1833333,3.01580597 C49.2899333,2.81585821 49.4476667,2.65083582 49.6539333,2.51899254 C49.9009333,2.3653209 50.1756667,2.28761194 50.4781333,2.28761194 C50.8586,2.28761194 51.1758,2.41159701 51.428,2.6604403 C51.7426,2.96516418 51.8986,3.42006716 51.8986,4.02427612 L51.8986,6.49000746 Z" id="Shape"></path>
          <path d="M58.0112,3.05946269 L57.0110667,3.05946269 L57.0110667,5.0589403 C57.0110667,5.56710448 57.1887333,5.82118657 57.5406,5.82118657 C57.7035333,5.82118657 57.8387333,5.80721642 57.9453333,5.77840299 L57.9687333,6.47254478 C57.7893333,6.54064925 57.5536,6.57470149 57.2632667,6.57470149 C56.9044667,6.57470149 56.6254,6.46468657 56.4234667,6.24465672 C56.2206667,6.02462687 56.1201333,5.65441791 56.1201333,5.13490299 L56.1201333,3.05946269 L55.523,3.05946269 L55.523,2.37405224 L56.1201333,2.37405224 L56.1201333,1.61966418 L57.0102,1.34899254 L57.0102,2.3731791 L58.0103333,2.3731791 L58.0103333,3.05946269 L58.0112,3.05946269 Z" id="Shape"></path>
          <path d="M62.8194667,6.49000746 L61.9103333,6.49000746 L61.9103333,4.15000746 C61.9103333,3.41220896 61.6364667,3.04287313 61.0878667,3.04287313 C60.6666667,3.04287313 60.3789333,3.25679104 60.2212,3.68462687 C60.1943333,3.7745597 60.1787333,3.88457463 60.1787333,4.01379851 L60.1787333,6.48913433 L59.2713333,6.48913433 L59.2713333,0.485462687 L60.1787333,0.485462687 L60.1787333,2.96603731 L60.1960667,2.96603731 C60.4820667,2.51462687 60.892,2.28935821 61.4232667,2.28935821 C61.7994,2.28935821 62.1105333,2.41334328 62.3575333,2.66218657 C62.6652,2.97214925 62.8194667,3.43316418 62.8194667,4.04261194 L62.8194667,6.49000746 Z" id="Shape"></path>
          <path d="M67.7794,4.2373209 C67.7794,4.40147015 67.7672667,4.53942537 67.7456,4.6520597 L65.0216667,4.6520597 C65.0338,5.0589403 65.1638,5.36890299 65.416,5.58369403 C65.6465333,5.77578358 65.9438,5.87182836 66.3078,5.87182836 C66.7108,5.87182836 67.0782667,5.80721642 67.4093333,5.6771194 L67.5514667,6.31276119 C67.1640667,6.48214925 66.7082,6.56684328 66.1804,6.56684328 C65.5477333,6.56684328 65.0494,6.3791194 64.6888667,6.00367164 C64.3266,5.62822388 64.1472,5.12442537 64.1472,4.49227612 C64.1472,3.87147761 64.3144667,3.35458209 64.6516,2.94246269 C65.0034667,2.50240299 65.4792667,2.28237313 66.0798667,2.28237313 C66.6674667,2.28237313 67.1138,2.50240299 67.4154,2.94246269 C67.6589333,3.29171642 67.7794,3.72391791 67.7794,4.2373209 Z M66.9127333,4.00070149 C66.9196667,3.72915672 66.8598667,3.49515672 66.7368,3.29782836 C66.5790667,3.04374627 66.339,2.91626866 66.014,2.91626866 C65.7176,2.91626866 65.4758,3.04025373 65.2912,3.28909701 C65.1404,3.48729851 65.0511333,3.72391791 65.0216667,4.00070149 L66.9127333,4.00070149 Z" id="Shape"></path>
        </g>
      </g>
    </g>
  </g>
</svg>