<svg height="45" viewBox="0 0 159 45" width="159" xmlns="http://www.w3.org/2000/svg"><g fill-rule="evenodd"><g fill="none" transform="translate(0 11.478992)"><path d="m19.749277 2.1365513c2.707811 1.4440874 5.389701 3.0706823 7.972536 4.8851092 1.744108-.7640471 3.388852-1.5159664 4.957686-2.2874084-2.261601-1.6937412-4.612382-3.2744874-7.017165-4.7342521-1.853347.7211563-3.822103 1.4100706-5.913057 2.1365513" fill="#999"/><path d="m22.217936 11.166978c3.121003 2.064377 6.024147 4.363025 8.655738 6.768753 1.739171-1.315415 3.322507-2.512511 4.791668-3.617022-2.225188-2.101351-4.641697-4.140585-7.241195-6.0363561-1.873404.8743799-3.93381 1.8164971-6.206211 2.8846251" fill="#4a4a4a"/><path d="m0 10.687193c2.8621022 1.285244 6.0429701 2.782575 9.4688525 4.647288 3.3990355-1.833358 6.5388625-3.311758 9.3605395-4.58162-3.183336-1.9277181-6.369141-3.5102391-9.4182445-4.8368946-3.0345998 1.3080201-6.2163934 2.8680605-9.4111475 4.7712266" fill="#01aa50"/><path d="m24.378014 25.622346c2.965785 2.597109 5.477338 5.102521 7.671668 7.381056 2.075834-2.180034 3.862218-4.21276 5.467155-6.057358-1.87001-2.193049-3.977628-4.507375-6.419132-6.831758-1.96567 1.620974-4.183452 3.450487-6.719691 5.50806" fill="#01aa50"/><path d="m10.800386 5.2134454c3.025342 1.3446991 6.155602 2.9414185 9.262102 4.8570086 2.384108-1.0524506 4.549431-1.9717918 6.518496-2.8189582-2.662758-1.8324706-5.419325-3.4575866-8.189161-4.8851093-2.345844.8249816-4.884861 1.7369278-7.591437 2.8470589" fill="#4a4a4a"/><path d="m11.417551 16.427455c3.836297 2.203698 7.610569 4.795779 11.043548 7.639288 2.681582-2.001372 5.034832-3.767288 7.11622-5.329103-2.743915-2.47169-5.776046-4.816779-9.020482-6.905707-2.725709 1.290864-5.782835 2.777842-9.139286 4.595522" fill="#01aa50"/></g><path d="m87.884766-1.3828125v7.3125h-1.960938v3.4648437h1.935547v15.6953128h3.974609v-15.6953128h3.517578v-3.4648437h-3.492187v-7.3125zm-13.769532 6.7011719c-2.853852 0-5.146211 1.0013683-6.878906 3.0058594-1.630774 1.8685932-2.464073 4.1965192-2.498047 6.9824222-.03397 3.159621.713338 5.622001 2.242188 7.388671 1.681734 1.919557 4.204891 2.895715 7.568359 2.929688 1.953529.01699 3.771391-.577111 5.453125-1.783203 1.528849-1.104169 2.666625-2.479194 3.414063-4.126953l-3.185547-1.91211c-.356732 1.070195-1.078835 2.039902-2.166016 2.90625-1.257054 1.002246-2.548044 1.459936-3.873047 1.375-3.584302-.220834-5.427374-2.200313-5.529297-5.9375h14.753907c.11891-3.142634-.705987-5.733018-2.472657-7.771484-1.76667-2.0384655-4.042222-3.0566406-6.828125-3.0566406zm-18.757812.076172c-2.37821 0-4.324076.9257376-5.835938 2.7773438v-2.2421877h-3.873046v19.0332035h4v-11.28711c-.000001-1.291028.426029-2.420401 1.27539-3.388672s1.892746-1.4447213 3.132813-1.427734c2.717954.050962 4.078125 1.648381 4.078125 4.791016v11.363281h3.873046v-12.917969c0-3.4823785-1.461012-5.6150725-4.382812-6.3964842-.764425-.2038466-1.520141-.3046875-2.267578-.3046876zm18.935547 3.4648436c2.582056.067949 4.2383 1.47854 4.96875 4.230469h-10.267578c.254808-1.291028.865713-2.327963 1.833984-3.1093752.968271-.781412 2.122854-1.1550685 3.464844-1.1210938z" fill="#4a4a4a" transform="translate(0 10)"/><path d="m99.099609 10.767578v34.246094h4.076171v-34.246094zm44.267581 14.396484-5.55469 12.511719-5.68164-11.746093h-4.12891l9.78516 20.511718 5.50391-12.384765 5.63086 12.410156 10.06445-20.537109h-4.33008l-5.73437 11.720703zm-28.88086.25586c-2.66699.05096-4.81454 1.085944-6.44531 3.107422-1.54587 1.902568-2.30158 4.213686-2.26758 6.93164.034 2.751929.8065 5.063048 2.31836 6.931641 1.63077 2.021479 3.80548 3.048058 6.52343 3.082031 1.24007.01699 2.53106-.279085 3.87305-.890625 1.15513-.509616 2.01169-1.0701 2.57227-1.68164l.0254 2.113281h3.95117v-19.083984h-4.02734l-.0254 1.833984c-1.68174-1.613784-3.84805-2.39471-6.49805-2.34375zm1.04492 3.261719c1.68173-.03397 3.11753.610544 4.30664 1.935547 1.13817 1.274041 1.73227 2.804233 1.7832 4.58789.051 1.834619-.50111 3.446893-1.65625 4.839844-1.20609 1.426925-2.67551 2.132221-4.4082 2.115234-1.69872-.01699-3.11576-.730687-4.25391-2.140625-1.0872-1.34199-1.61407-2.912246-1.58007-4.71289.034-1.800645.55244-3.322434 1.55468-4.5625 1.08718-1.341992 2.50422-2.028527 4.25391-2.0625z" fill="#01aa50" transform="translate(0 -10)"/></g></svg>