<svg height="45" viewBox="0 0 159 45" width="159" xmlns="http://www.w3.org/2000/svg"><g fill="none" fill-rule="evenodd" transform="translate(0 -6)"><g transform="translate(0 17.478992)"><path d="m19.7492768 2.13655126c2.707811 1.4440874 5.389701 3.07068235 7.9725361 4.88510924 1.744108-.76404705 3.3888525-1.51596638 4.9576857-2.2874084-2.2616008-1.69374118-4.6123819-3.27448739-7.0171649-4.7342521-1.8533462.7211563-3.8221023 1.41007059-5.9130569 2.13655126" fill="#999"/><path d="m22.2179364 11.1669782c3.1210028 2.0643764 6.0241465 4.3630252 8.6557377 6.7687529 1.7391706-1.3154151 3.3225072-2.5125109 4.7916682-3.6170219-2.225188-2.1013512-4.6416972-4.1405848-7.2411957-6.03635626-1.8734041.87437983-3.9338091 1.81649746-6.2062102 2.88462526" fill="#4a4a4a"/><path d="m0 10.6871933c2.86210222 1.2852437 6.04297011 2.7825748 9.46885246 4.6472874 3.39903564-1.833358 6.53886214-3.311758 9.36054004-4.5816202-3.1833366-1.92771764-6.3691418-3.51023865-9.41824496-4.83689411-3.03459981 1.30802016-6.21639344 2.8680605-9.41114754 4.77122691" fill="#01aa50"/><path d="m24.3780135 25.6223462c2.9657859 2.5971093 5.4773385 5.102521 7.6716683 7.3810555 2.0758341-2.1800336 3.8622179-4.2127597 5.4671552-6.057358-1.8700096-2.1930487-3.9776277-4.5073748-6.4191321-6.831758-1.9656702 1.6209748-4.1834522 3.4504874-6.7196914 5.5080605" fill="#01aa50"/><path d="m10.8003857 5.21344538c3.0253424 1.34469916 6.1556027 2.94141849 9.2621022 4.85700842 2.384108-1.05245044 4.5494311-1.97179162 6.5184957-2.818958-2.6627579-1.83247059-5.419325-3.45758656-8.189161-4.88510925-2.3458438.82498152-4.8848602 1.73692774-7.5914369 2.84705883" fill="#4a4a4a"/><path d="m11.4175506 16.4274555c3.836297 2.2036974 7.610569 4.7957781 11.0435487 7.6392874 2.6815815-2.0013715 5.0348313-3.7672874 7.1162199-5.3291026-2.7439151-2.4716907-5.7760463-4.8167798-9.0204822-6.9057075-2.7257087 1.2908638-5.7828351 2.777842-9.1392864 4.5955227" fill="#01aa50"/></g><text font-family="FuturaICG, Futura ICG" font-size="40.336135" letter-spacing="-1.34453784"><tspan fill="#4a4a4a" x="43.563025" y="41">net</tspan> <tspan fill="#01aa50" x="95.994904" y="41">law</tspan></text></g></svg>