<?xml version="1.0" encoding="UTF-8"?>
<svg width="68px" height="34px" viewBox="0 0 68 34" version="1.1" xmlns="http://www.w3.org/2000/svg" xmlns:xlink="http://www.w3.org/1999/xlink">
    <!-- Generator: sketchtool 50.2 (55047) - http://www.bohemiancoding.com/sketch -->
    <title>CC272F2E-9778-4654-A7F9-4FCA85510BA2</title>
    <desc>Created with sketchtool.</desc>
    <defs></defs>
    <g id="Wireframes---Mobile" stroke="none" stroke-width="1" fill="none" fill-rule="evenodd">
        <g id="Dash---SmartGuide" transform="translate(-27.000000, -111.000000)">
            <g id="Content" transform="translate(27.000000, 94.000000)">
                <g id="Group">
                    <g id="Group-3" transform="translate(0.000000, 7.000000)">
                        <g id="pencil-icon" transform="translate(34.000000, 27.142857) rotate(-270.000000) translate(-34.000000, -27.142857) translate(18.000000, -6.000000)">
                            <g id="micron" transform="translate(21.137615, 0.000000)">
                                <path d="M2.52477064,3.17018634 L0.469724771,3.34310559 C0.293577982,3.34310559 0.176146789,3.48720497 0.205504587,3.66012422 L1.17431193,14.611677 C1.23302752,15.2457143 1.79082569,15.6780124 2.43669725,15.6203727 L6.84036697,15.2457143" id="XMLID_24_" stroke="#1485E0" stroke-width="0.5" fill="#FFFFFF"></path>
                                <path d="M2.78899083,12.7095652 L6.28256881,52.0198758 C6.28256881,52.192795 6.4293578,52.3080745 6.57614679,52.3080745 L6.89908257,52.2792547 L7.01651376,53.7202484 C7.01651376,53.8931677 7.16330275,54.0084472 7.33944954,53.9796273 L9.98165138,53.7490683 C10.1577982,53.7490683 10.2752294,53.5761491 10.2458716,53.4320497 L10.1284404,51.9910559 L10.3926606,51.962236 C10.5688073,51.962236 10.6862385,51.7893168 10.6862385,51.6452174 L7.19266055,12.3349068 L2.78899083,12.7095652 L2.78899083,12.7095652 Z" id="XMLID_22_" stroke="#1485E0" fill="#C4E1F7"></path>
                                <path d="M3.02385321,15.5627329 L1.70275229,0.634037267 C1.70275229,0.461118012 1.79082569,0.345838509 1.96697248,0.317018634 L5.78348624,0 C5.95963303,0 6.10642202,0.0864596273 6.10642202,0.259378882 L7.42752294,15.1880745" id="XMLID_21_" stroke="#1485E0" fill="#C4E1F7"></path>
                                <path d="M3.31743119,15.5168944 L7.13394495,15.2168944" id="XMLID_20_" stroke="#1485E0" stroke-width="0.5"></path>
                                <path d="M2.17247706,2.58059006 L5.98899083,2.30559006" id="XMLID_19_" stroke="#1485E0" stroke-width="0.5"></path>
                                <rect id="XMLID_18_" fill="#FFFFFF" transform="translate(3.994174, 1.470012) rotate(-4.999973) translate(-3.994174, -1.470012) " x="2.37948695" y="0.749511112" width="3.22937485" height="1.4410014"></rect>
                                <rect id="XMLID_17_" fill="#1485E0" transform="translate(8.485120, 51.847350) rotate(-4.999973) translate(-8.485120, -51.847350) " x="7.45759159" y="51.5591496" width="2.05505673" height="1"></rect>
                                <rect id="XMLID_16_" fill="#FFFFFF" transform="translate(8.544190, 52.713493) rotate(-4.999973) translate(-8.544190, -52.713493) " x="7.5166616" y="52.1370928" width="2.05505673" height="1.15280112"></rect>
                            </g>
                            <g id="pencil" transform="translate(0.000000, 8.357764)">
                                <path d="M17.2623853,57.1209938 L15.559633,57.5821118 C14.9431193,57.7550311 14.2385321,57.6685714 14.0917431,57.063354 L0.176146789,6.10981366 L0.64587156,0.0288198758 L4.13944954,5.07229814 L18.0550459,56.0258385 C18.2311927,56.602236 17.8788991,56.9480745 17.2623853,57.1209938 L17.2623853,57.1209938 Z" id="XMLID_15_" fill="#C4E1F7"></path>
                                <rect id="XMLID_14_" stroke="#1485E0" stroke-width="0.5" fill="#FFFFFF" transform="translate(14.672364, 51.379605) rotate(-14.999329) translate(-14.672364, -51.379605) " x="12.6173796" y="50.0827491" width="4.10996895" height="2.59371133"></rect>
                                <path d="M1.6733945,6.02335404 L13.6807339,50.0024845" id="XMLID_13_" stroke="#1485E0" stroke-width="0.5"></path>
                                <path d="M2.81834862,5.7063354 L14.8256881,49.6854658" id="XMLID_12_" stroke="#1485E0" stroke-width="0.5"></path>
                                <path d="M0.733944954,5.96571429 L3.58165138,5.21639752" id="XMLID_11_" stroke="#1485E0" stroke-width="0.5"></path>
                                <polygon id="XMLID_10_" fill="#FFFFFF" points="0.205504587 5.79279503 0.822018349 0.259378882 4.19816514 4.7552795"></polygon>
                                <rect id="XMLID_9_" fill="#1485E0" transform="translate(1.256282, 2.244227) rotate(-14.999329) translate(-1.256282, -2.244227) " x="0.669143413" y="1.37965634" width="1.17427684" height="1.72914089"></rect>
                                <path d="M17.2623853,57.1209938 L15.559633,57.5821118 C14.9431193,57.7550311 14.2385321,57.6685714 14.0917431,57.063354 L0.176146789,6.10981366 L0.64587156,0.0288198758 L4.13944954,5.07229814 L18.0550459,56.0258385 C18.2311927,56.602236 17.8788991,56.9480745 17.2623853,57.1209938 L17.2623853,57.1209938 Z" id="XMLID_8_" stroke="#1485E0"></path>
                            </g>
                        </g>
                    </g>
                </g>
            </g>
        </g>
    </g>
</svg>